<?xml version="1.0" encoding="UTF-8"?>
<svg width="62px" height="63px" viewBox="0 0 62 63" version="1.1" xmlns="http://www.w3.org/2000/svg" xmlns:xlink="http://www.w3.org/1999/xlink">
    <title>facebook</title>
    <defs>
        <polygon id="path-1" points="0.0003 0.56075 61.44 0.56075 61.44 62 0.0003 62"></polygon>
    </defs>
    <g id="changes" stroke="none" stroke-width="1" fill="none" fill-rule="evenodd">
        <g id="facebook">
            <g id="Group-3" transform="translate(0.000000, 0.439700)">
                <mask id="mask-2" fill="white">
                    <use xlink:href="#path-1"></use>
                </mask>
                <g id="Clip-2"></g>
                <path d="M10.5448,1.9355 C23.9948,0.1025 37.4448,0.1025 50.8948,1.9355 C55.8928,2.6165 59.3828,6.1075 60.0648,11.1045 C61.8988,24.5545 61.8988,38.0055 60.0648,51.4555 C59.3828,56.4525 55.8928,59.9435 50.8948,60.6245 C37.4448,62.4585 23.9948,62.4585 10.5448,60.6245 C5.5468,59.9435 2.0568,56.4525 1.3758,51.4555 C-0.4582,38.0055 -0.4582,24.5545 1.3758,11.1045 C2.0568,6.1075 5.5468,2.6165 10.5448,1.9355" id="Fill-1" fill="#4D494A" mask="url(#mask-2)"></path>
            </g>
            <path d="M61.2348,39.5066 L61.1878,39.4966 L61.1878,39.4226 L61.1878,39.4226 L61.1878,39.4216 L61.1838,39.4216 L61.0918,39.4006 L61.0918,39.3256 L61.0918,39.3256 L61.0918,39.3246 L61.0888,39.3246 L60.9968,39.3046 L60.9968,39.2306 L60.9958,39.2306 L60.9958,39.2296 L60.9928,39.2296 L60.9008,39.2086 L60.9008,39.1346 L60.8998,39.1346 L60.8998,39.1336 L60.8968,39.1336 L60.8048,39.1126 L60.8048,39.0386 L60.8038,39.0386 L60.8038,39.0376 L60.8008,39.0376 L60.7088,39.0166 L60.7088,38.9426 L60.7078,38.9426 L60.7078,38.9426 L60.7048,38.9426 L60.6128,38.9216 L60.6128,38.8466 L60.6118,38.8466 L60.6118,38.8456 L60.6088,38.8456 L60.5168,38.8256 L60.5168,38.7516 L60.5158,38.7516 L60.5158,38.7506 L60.5128,38.7506 L60.4208,38.7296 L60.4208,38.6556 L60.4208,38.6556 L60.4208,38.6546 L60.4168,38.6546 L60.3248,38.6336 L60.3248,38.5596 L60.3248,38.5596 L60.3248,38.5586 L60.3208,38.5586 L60.2298,38.5376 L60.2298,38.4636 L60.2288,38.4636 L60.2288,38.4626 L60.2258,38.4626 L60.1328,38.4426 L60.1328,38.3676 L60.1328,38.3676 L60.1328,38.3666 L60.1298,38.3666 L60.0378,38.3466 L60.0378,38.2726 L60.0368,38.2726 L60.0368,38.2716 L60.0338,38.2716 L59.9418,38.2506 L59.9418,38.1766 L59.9408,38.1766 L59.9408,38.1756 L59.9378,38.1756 L59.8458,38.1546 L59.8458,38.0806 L59.8448,38.0806 L59.8448,38.0796 L59.8418,38.0796 L59.7498,38.0586 L59.7498,37.9846 L59.7488,37.9846 L59.7488,37.9836 L59.7458,37.9836 L59.6538,37.9636 L59.6538,37.8886 L59.6528,37.8886 L59.6528,37.8876 L59.6498,37.8876 L59.5578,37.8676 L59.5578,37.7936 L59.5578,37.7936 L59.5578,37.7926 L59.5538,37.7926 L59.4618,37.7716 L59.4618,37.6976 L59.4618,37.6976 L59.4618,37.6966 L59.4578,37.6966 L59.3658,37.6756 L59.3658,37.6016 L59.3658,37.6016 L59.3658,37.6006 L59.3618,37.6006 L59.2708,37.5796 L59.2708,37.5056 L59.2698,37.5056 L59.2698,37.5046 L59.2668,37.5046 L59.1748,37.4846 L59.1748,37.4096 L59.1738,37.4096 L59.1738,37.4086 L59.1708,37.4086 L59.0788,37.3886 L59.0788,37.3146 L59.0778,37.3146 L59.0778,37.3136 L59.0748,37.3136 L58.9828,37.2926 L58.9828,37.2186 L58.9828,37.2186 L58.9828,37.2176 L58.9788,37.2176 L58.8868,37.1966 L58.8868,37.1226 L58.8858,37.1226 L58.8858,37.1216 L58.8828,37.1216 L58.7908,37.1006 L58.7908,37.0266 L58.7908,37.0266 L58.7908,37.0256 L58.7868,37.0256 L58.6948,37.0056 L58.6948,36.9306 L58.6938,36.9306 L58.6938,36.9296 L58.6908,36.9296 L58.5988,36.9096 L58.5988,36.8356 L58.5988,36.8356 L58.5988,36.8346 L58.5948,36.8346 L58.5038,36.8136 L58.5038,36.7386 L58.5028,36.7386 L58.5028,36.7376 L58.4998,36.7376 L58.4068,36.7176 L58.4068,36.6436 L58.4068,36.6436 L58.4068,36.6426 L58.4028,36.6426 L58.3118,36.6216 L58.3118,36.5476 L58.3108,36.5476 L58.3108,36.5466 L58.3078,36.5466 L58.2158,36.5266 L58.2158,36.4516 L58.2148,36.4516 L58.2148,36.4506 L58.2118,36.4506 L58.1198,36.4306 L58.1198,36.3566 L58.1188,36.3566 L58.1188,36.3556 L58.1158,36.3556 L58.0238,36.3346 L58.0238,36.2596 L58.0238,36.2596 L58.0238,36.2596 L58.0198,36.2596 L57.9278,36.2386 L57.9278,36.1646 L57.9268,36.1646 L57.9268,36.1636 L57.9238,36.1636 L57.8318,36.1426 L57.8318,36.0686 L57.8318,36.0686 L57.8318,36.0676 L57.8278,36.0676 L57.7358,36.0476 L57.7358,35.9726 L57.7358,35.9726 L57.7358,35.9716 L57.7328,35.9716 L57.6398,35.9516 L57.6398,35.8766 L57.6398,35.8766 L57.6398,35.8766 L57.6358,35.8766 L57.5448,35.8556 L57.5448,35.7806 L57.5438,35.7806 L57.5438,35.7796 L57.5408,35.7796 L57.4488,35.7596 L57.4488,35.6856 L57.4478,35.6856 L57.4478,35.6846 L57.4448,35.6846 L57.3528,35.6636 L57.3528,35.5896 L57.3518,35.5896 L57.3518,35.5886 L57.3488,35.5886 L57.2568,35.5686 L57.2568,35.4936 L57.2558,35.4936 L57.2558,35.4926 L57.2528,35.4926 L57.1608,35.4716 L57.1608,35.3976 L57.1598,35.3976 L57.1598,35.3976 L57.1568,35.3976 L57.0648,35.3766 L57.0648,35.3016 L57.0648,35.3016 L57.0648,35.3006 L57.0608,35.3006 L56.9688,35.2806 L56.9688,35.2066 L56.9678,35.2066 L56.9678,35.2056 L56.9648,35.2056 L56.8728,35.1846 L56.8728,35.1106 L56.8728,35.1106 L56.8728,35.1096 L56.8688,35.1096 L56.7768,35.0896 L56.7768,35.0146 L56.7768,35.0146 L56.7768,35.0136 L56.7738,35.0136 L56.6818,34.9926 L56.6818,34.9186 L56.6808,34.9186 L56.6808,34.9176 L56.6778,34.9176 L56.5858,34.8976 L56.5858,34.8226 L56.5848,34.8226 L56.5848,34.8216 L56.5818,34.8216 L56.4898,34.8016 L56.4898,34.7276 L56.4888,34.7276 L56.4888,34.7266 L56.4858,34.7266 L56.3938,34.7056 L56.3938,34.6316 L56.3938,34.6316 L56.3938,34.6306 L56.3898,34.6306 L56.2978,34.6096 L56.2978,34.5356 L56.2978,34.5356 L56.2978,34.5346 L56.2938,34.5346 L56.2018,34.5136 L56.2018,34.4396 L56.2018,34.4396 L56.2018,34.4386 L56.1978,34.4386 L56.1058,34.4186 L56.1058,34.3436 L56.1058,34.3436 L56.1058,34.3426 L56.1018,34.3426 L56.0098,34.3226 L56.0098,34.2486 L56.0098,34.2486 L56.0098,34.2476 L56.0058,34.2476 L55.9138,34.2266 L55.9138,34.1526 L55.9138,34.1526 L55.9138,34.1516 L55.9098,34.1516 L55.8178,34.1306 L55.8178,34.0566 L55.8178,34.0566 L55.8178,34.0556 L55.8148,34.0556 L55.7228,34.0346 L55.7228,33.9606 L55.7218,33.9606 L55.7218,33.9596 L55.7188,33.9596 L55.6268,33.9396 L55.6268,33.8646 L55.6268,33.8646 L55.6268,33.8636 L55.6228,33.8636 L55.5308,33.8436 L55.5308,33.7696 L55.5298,33.7696 L55.5298,33.7686 L55.5268,33.7686 L55.4348,33.7476 L55.4348,33.6736 L55.4338,33.6736 L55.4338,33.6726 L55.4308,33.6726 L55.3388,33.6516 L55.3388,33.5776 L55.3388,33.5776 L55.3388,33.5766 L55.3348,33.5766 L55.2428,33.5556 L55.2428,33.4816 L55.2428,33.4816 L55.2428,33.4806 L55.2388,33.4806 L55.1478,33.4606 L55.1478,33.3856 L55.1468,33.3856 L55.1468,33.3846 L55.1428,33.3846 L55.0508,33.3646 L55.0508,33.2896 L55.0508,33.2896 L55.0508,33.2896 L55.0478,33.2896 L54.9558,33.2686 L54.9558,33.1946 L54.9548,33.1946 L54.9548,33.1936 L54.9518,33.1936 L54.8598,33.1726 L54.8598,33.0986 L54.8588,33.0986 L54.8588,33.0976 L54.8558,33.0976 L54.7638,33.0766 L54.7638,33.0026 L54.7628,33.0026 L54.7628,33.0016 L54.7598,33.0016 L54.6678,32.9816 L54.6678,32.9066 L54.6678,32.9066 L54.6678,32.9056 L54.6638,32.9056 L54.5718,32.8846 L54.5718,32.8106 L54.5708,32.8106 L54.5708,32.8106 L54.5678,32.8106 L54.4758,32.7896 L54.4758,32.7146 L54.4758,32.7146 L54.4758,32.7146 L54.4718,32.7146 L54.3798,32.6936 L54.3798,32.6196 L54.3798,32.6196 L54.3798,32.6186 L54.3758,32.6186 L54.2838,32.5976 L54.2838,32.5236 L54.2838,32.5236 L54.2838,32.5226 L54.2798,32.5226 L54.1888,32.5026 L54.1888,32.4276 L54.1878,32.4276 L54.1878,32.4266 L54.1848,32.4266 L54.0918,32.4056 L54.0918,32.3316 L54.0918,32.3316 L54.0918,32.3306 L54.0888,32.3306 L53.9968,32.3106 L53.9968,32.2356 L53.9958,32.2356 L53.9958,32.2356 L53.9928,32.2356 L53.9008,32.2146 L53.9008,32.1406 L53.9008,32.1406 L53.9008,32.1396 L53.8968,32.1396 L53.8048,32.1186 L53.8048,32.0446 L53.8038,32.0446 L53.8038,32.0436 L53.8008,32.0436 L53.7088,32.0226 L53.7088,31.9486 L53.7088,31.9486 L53.7088,31.9476 L53.7048,31.9476 L53.6128,31.9266 L53.6128,31.8526 L53.6118,31.8526 L53.6118,31.8516 L53.6088,31.8516 L53.5168,31.8316 L53.5168,31.7566 L53.5168,31.7566 L53.5168,31.7566 L53.5128,31.7566 L53.4218,31.7356 L53.4218,31.6616 L53.4208,31.6616 L53.4208,31.6606 L53.4168,31.6606 L53.3248,31.6396 L53.3248,31.5656 L53.3248,31.5656 L53.3248,31.5646 L53.3208,31.5646 L53.2298,31.5436 L53.2298,31.4696 L53.2288,31.4696 L53.2288,31.4686 L53.2258,31.4686 L53.1338,31.4476 L53.1338,31.3736 L53.1328,31.3736 L53.1328,31.3726 L53.1298,31.3726 L53.0378,31.3526 L53.0378,31.2776 L53.0368,31.2776 L53.0368,31.2776 L53.0338,31.2776 L52.9418,31.2566 L52.9418,31.1826 L52.9418,31.1826 L52.9418,31.1816 L52.9378,31.1816 L52.8458,31.1606 L52.8458,31.0866 L52.8448,31.0866 L52.8448,31.0856 L52.8418,31.0856 L52.7498,31.0646 L52.7498,30.9906 L52.7498,30.9906 L52.7498,30.9896 L52.7458,30.9896 L52.6538,30.9686 L52.6538,30.8946 L52.6528,30.8946 L52.6528,30.8936 L52.6498,30.8936 L52.5578,30.8736 L52.5578,30.7986 L52.5578,30.7986 L52.5578,30.7986 L52.5538,30.7986 L52.4628,30.7776 L52.4628,30.7026 L52.4618,30.7026 L52.4618,30.7026 L52.4588,30.7026 L52.3658,30.6816 L52.3658,30.6076 L52.3658,30.6076 L52.3658,30.6066 L52.3618,30.6066 L52.2708,30.5856 L52.2708,30.5116 L52.2698,30.5116 L52.2698,30.5106 L52.2668,30.5106 L52.1748,30.4896 L52.1748,30.4156 L52.1738,30.4156 L52.1738,30.4146 L52.1708,30.4146 L52.0788,30.3946 L52.0788,30.3196 L52.0788,30.3196 L52.0788,30.3186 L52.0748,30.3186 L51.9828,30.2986 L51.9828,30.2236 L51.9828,30.2236 L51.9828,30.2236 L51.9788,30.2236 L51.8868,30.2026 L51.8868,30.1286 L51.8868,30.1286 L51.8868,30.1276 L51.8828,30.1276 L51.7908,30.1066 L51.7908,30.0326 L51.7908,30.0326 L51.7908,30.0316 L51.7868,30.0316 L51.6948,30.0106 L51.6948,29.9366 L51.6948,29.9366 L51.6948,29.9356 L51.6918,29.9356 L51.5988,29.9156 L51.5988,29.8406 L51.5988,29.8406 L51.5988,29.8396 L51.5948,29.8396 L51.5038,29.8186 L51.5038,29.7446 L51.5028,29.7446 L51.5028,29.7436 L51.4998,29.7436 L51.4078,29.7236 L51.4078,29.6496 L51.4068,29.6496 L51.4068,29.6486 L51.4038,29.6486 L51.3118,29.6276 L51.3118,29.5536 L51.3108,29.5536 L51.3108,29.5526 L51.3078,29.5526 L51.2158,29.5316 L51.2158,29.4576 L51.2148,29.4576 L51.2148,29.4566 L51.2118,29.4566 L51.1198,29.4356 L51.1198,29.3616 L51.1198,29.3616 L51.1198,29.3606 L51.1158,29.3606 L51.0248,29.3396 L51.0248,29.2656 L51.0238,29.2656 L51.0238,29.2646 L51.0198,29.2646 L50.9278,29.2446 L50.9278,29.1706 L50.9278,29.1706 L50.9278,29.1696 L50.9238,29.1696 L50.8328,29.1486 L50.8328,29.0746 L50.8318,29.0746 L50.8318,29.0736 L50.8278,29.0736 L50.7358,29.0526 L50.7358,28.9786 L50.7358,28.9786 L50.7358,28.9776 L50.7328,28.9776 L50.6408,28.9566 L50.6408,28.8826 L50.6398,28.8826 L50.6398,28.8816 L50.6358,28.8816 L50.5448,28.8606 L50.5448,28.7866 L50.5438,28.7866 L50.5438,28.7856 L50.5408,28.7856 L50.4488,28.7656 L50.4488,28.6916 L50.4478,28.6916 L50.4478,28.6906 L50.4448,28.6906 L50.3528,28.6696 L50.3528,28.5956 L50.3528,28.5956 L50.3528,28.5946 L50.3488,28.5946 L50.2568,28.5736 L50.2568,28.4996 L50.2558,28.4996 L50.2558,28.4986 L50.2528,28.4986 L50.1608,28.4786 L50.1608,28.4036 L50.1608,28.4036 L50.1608,28.4026 L50.1568,28.4026 L50.0658,28.3826 L50.0658,28.3076 L50.0648,28.3076 L50.0648,28.3076 L50.0608,28.3076 L49.9688,28.2866 L49.9688,28.2126 L49.9688,28.2126 L49.9688,28.2116 L49.9648,28.2116 L49.8738,28.1906 L49.8738,28.1166 L49.8728,28.1166 L49.8728,28.1156 L49.8688,28.1156 L49.7768,28.0946 L49.7768,28.0206 L49.7768,28.0206 L49.7768,28.0196 L49.7738,28.0196 L49.6818,27.9996 L49.6818,27.9246 L49.6808,27.9246 L49.6808,27.9236 L49.6778,27.9236 L49.5858,27.9026 L49.5858,27.8286 L49.5848,27.8286 L49.5848,27.8286 L49.5818,27.8286 L49.4898,27.8076 L49.4898,27.7336 L49.4888,27.7336 L49.4888,27.7326 L49.4858,27.7326 L49.3938,27.7116 L49.3938,27.6376 L49.3938,27.6376 L49.3938,27.6366 L49.3898,27.6366 L49.2978,27.6156 L49.2978,27.5416 L49.2978,27.5416 L49.2978,27.5406 L49.2948,27.5406 L49.2018,27.5206 L49.2018,27.4456 L49.2018,27.4456 L49.2018,27.4446 L49.1978,27.4446 L49.1068,27.4236 L49.1068,27.3496 L49.1058,27.3496 L49.1058,27.3486 L49.1028,27.3486 L49.0098,27.3286 L49.0098,27.2546 L49.0098,27.2546 L49.0098,27.2536 L49.0058,27.2536 L48.9148,27.2326 L48.9148,27.1586 L48.9138,27.1586 L48.9138,27.1576 L48.9108,27.1576 L48.8178,27.1366 L48.8178,27.0626 L48.8178,27.0626 L48.8178,27.0616 L48.8148,27.0616 L48.7228,27.0406 L48.7228,26.9666 L48.7218,26.9666 L48.7218,26.9656 L48.7188,26.9656 L48.6268,26.9446 L48.6268,26.8706 L48.6268,26.8706 L48.6268,26.8696 L48.6228,26.8696 L48.5308,26.8496 L48.5308,26.7756 L48.5308,26.7756 L48.5308,26.7746 L48.5268,26.7746 L48.4348,26.7536 L48.4348,26.6796 L48.4348,26.6796 L48.4348,26.6786 L48.4308,26.6786 L48.3388,26.6576 L48.3388,26.5836 L48.3388,26.5836 L48.3388,26.5826 L48.3358,26.5826 L48.2438,26.5616 L48.2438,26.4876 L48.2428,26.4876 L48.2428,26.4866 L48.2388,26.4866 L48.1478,26.4656 L48.1478,26.3916 L48.1468,26.3916 L48.1468,26.3906 L48.1438,26.3906 L48.0518,26.3706 L48.0518,26.2966 L48.0508,26.2966 L48.0508,26.2956 L48.0468,26.2956 L47.9558,26.2746 L47.9558,26.2006 L47.9548,26.2006 L47.9548,26.1996 L47.9518,26.1996 L47.8598,26.1786 L47.8598,26.1046 L47.8598,26.1046 L47.8598,26.1036 L47.8558,26.1036 L47.7638,26.0826 L47.7638,26.0086 L47.7628,26.0086 L47.7628,26.0076 L47.7598,26.0076 L47.6678,25.9866 L47.6678,25.9126 L47.6678,25.9126 L47.6678,25.9116 L47.6638,25.9116 L47.5718,25.8916 L47.5718,25.8176 L47.5718,25.8176 L47.5718,25.8166 L47.5678,25.8166 L47.4768,25.7956 L47.4768,25.7206 L47.4758,25.7206 L47.4758,25.7206 L47.4728,25.7206 L47.3808,25.6996 L47.3808,25.6256 L47.3798,25.6256 L47.3798,25.6246 L47.3768,25.6246 L47.2848,25.6036 L47.2848,25.5296 L47.2838,25.5296 L47.2838,25.5286 L47.2808,25.5286 L47.1888,25.5076 L47.1888,25.4336 L47.1878,25.4336 L47.1878,25.4326 L47.1848,25.4326 L47.0918,25.4126 L47.0918,25.3386 L47.0918,25.3386 L47.0918,25.3376 L47.0888,25.3376 L46.9968,25.3166 L46.9968,25.2416 L46.9958,25.2416 L46.9958,25.2416 L46.9928,25.2416 L46.9008,25.2206 L46.9008,25.1466 L46.9008,25.1466 L46.9008,25.1456 L46.8968,25.1456 L46.8048,25.1246 L46.8048,25.0506 L46.8048,25.0506 L46.8048,25.0496 L46.8008,25.0496 L46.7088,25.0286 L46.7088,24.9546 L46.7088,24.9546 L46.7088,24.9536 L46.7048,24.9536 L46.6128,24.9336 L46.6128,24.8586 L46.6128,24.8586 L46.6128,24.8586 L46.6098,24.8586 L46.5178,24.8376 L46.5178,24.7626 L46.5168,24.7626 L46.5168,24.7626 L46.5128,24.7626 L46.4218,24.7416 L46.4218,24.6676 L46.4208,24.6676 L46.4208,24.6666 L46.4178,24.6666 L46.3258,24.6456 L46.3258,24.5716 L46.3248,24.5716 L46.3248,24.5706 L46.3208,24.5706 L46.2298,24.5496 L46.2298,24.4756 L46.2288,24.4756 L46.2288,24.4746 L46.2258,24.4746 L46.1338,24.4536 L46.1338,24.3796 L46.1328,24.3796 L46.1328,24.3796 L46.1298,24.3796 L46.0378,24.3586 L46.0378,24.2836 L46.0368,24.2836 L46.0368,24.2826 L46.0338,24.2826 L45.9418,24.2626 L45.9418,24.1886 L45.9418,24.1886 L45.9418,24.1876 L45.9378,24.1876 L45.8458,24.1666 L45.8458,24.0926 L45.8458,24.0926 L45.8458,24.0916 L45.8418,24.0916 L45.7508,24.0706 L45.7508,23.9966 L45.7498,23.9966 L45.7498,23.9956 L45.7468,23.9956 L45.6538,23.9746 L45.6538,23.9006 L45.6538,23.9006 L45.6538,23.9006 L45.6508,23.9006 L45.5588,23.8796 L45.5588,23.8046 L45.5578,23.8046 L45.5578,23.8036 L45.5538,23.8036 L45.4628,23.7836 L45.4628,23.7096 L45.4618,23.7096 L45.4618,23.7086 L45.4588,23.7086 L45.3668,23.6876 L45.3668,23.6136 L45.3658,23.6136 L45.3658,23.6126 L45.3628,23.6126 L45.2708,23.5916 L45.2708,23.5176 L45.2698,23.5176 L45.2698,23.5166 L45.2668,23.5166 L45.1748,23.4956 L45.1748,23.4216 L45.1738,23.4216 L45.1738,23.4206 L45.1708,23.4206 L45.0788,23.4006 L45.0788,23.3256 L45.0788,23.3256 L45.0788,23.3246 L45.0748,23.3246 L44.9828,23.3046 L44.9828,23.2306 L44.9828,23.2306 L44.9828,23.2296 L44.9788,23.2296 L44.8868,23.2086 L44.8868,23.1346 L44.8868,23.1346 L44.8868,23.1336 L44.8828,23.1336 L44.7918,23.1126 L44.7918,23.0386 L44.7908,23.0386 L44.7908,23.0376 L44.7878,23.0376 L44.6948,23.0166 L44.6948,22.9426 L44.6948,22.9426 L44.6948,22.9416 L44.6918,22.9416 L44.5998,22.9216 L44.5998,22.8466 L44.5988,22.8466 L44.5988,22.8456 L44.5958,22.8456 L44.5038,22.8256 L44.5038,22.7516 L44.5028,22.7516 L44.5028,22.7506 L44.4998,22.7506 L44.4078,22.7296 L44.4078,22.6556 L44.4068,22.6556 L44.4068,22.6546 L44.4038,22.6546 L44.3118,22.6336 L44.3118,22.5596 L44.3118,22.5596 L44.3118,22.5586 L44.3078,22.5586 L44.2158,22.5376 L44.2158,22.4636 L44.2148,22.4636 L44.2148,22.4626 L44.2118,22.4626 L44.1198,22.4426 L44.1198,22.3676 L44.1198,22.3676 L44.1198,22.3666 L44.1158,22.3666 L44.0248,22.3466 L44.0248,22.2726 L44.0238,22.2726 L44.0238,22.2716 L44.0208,22.2716 L43.9278,22.2506 L43.9278,22.1756 L43.9278,22.1756 L43.9278,22.1756 L43.9238,22.1756 L43.8328,22.1546 L43.8328,22.0806 L43.8318,22.0806 L43.8318,22.0796 L43.8288,22.0796 L43.7368,22.0586 L43.7368,21.9846 L43.7358,21.9846 L43.7358,21.9836 L43.7328,21.9836 L43.6408,21.9636 L43.6408,21.8886 L43.6398,21.8886 L43.6398,21.8876 L43.6368,21.8876 L43.5448,21.8666 L43.5448,21.7936 L43.5438,21.7936 L43.5438,21.7926 L43.5408,21.7926 L43.4488,21.7716 L43.4488,21.6966 L43.4478,21.6966 L43.4478,21.6956 L43.4448,21.6956 L43.3528,21.6756 L43.3528,21.6016 L43.3528,21.6016 L43.3528,21.6006 L43.3488,21.6006 L43.2568,21.5796 L43.2568,21.5056 L43.2568,21.5056 L43.2568,21.5046 L43.2538,21.5046 L43.1608,21.4846 L43.1608,21.4096 L43.1608,21.4096 L43.1608,21.4086 L43.1568,21.4086 L43.0658,21.3876 L43.0658,21.3136 L43.0648,21.3136 L43.0648,21.3136 L43.0618,21.3136 L42.9698,21.2926 L42.9698,21.2176 L42.9688,21.2176 L42.9688,21.2166 L42.9658,21.2166 L42.8738,21.1966 L42.8738,21.1226 L42.8728,21.1226 L42.8728,21.1216 L42.8698,21.1216 L42.7778,21.1006 L42.7778,21.0266 L42.7768,21.0266 L42.7768,21.0256 L42.7738,21.0256 L42.6818,21.0046 L42.6818,20.9306 L42.6808,20.9306 L42.6808,20.9296 L42.6778,20.9296 L42.5858,20.9086 L42.5858,20.8346 L42.5858,20.8346 L42.5858,20.8336 L42.5818,20.8336 L42.4898,20.8136 L42.4898,20.7386 L42.4888,20.7386 L42.4888,20.7376 L42.4858,20.7376 L42.3938,20.7176 L42.3938,20.6436 L42.3938,20.6436 L42.3938,20.6426 L42.3898,20.6426 L42.2978,20.6216 L42.2978,20.5476 L42.2978,20.5476 L42.2978,20.5466 L42.2948,20.5466 L42.2028,20.5266 L42.2028,20.4516 L42.2018,20.4516 L42.2018,20.4506 L42.1988,20.4506 L42.1068,20.4296 L42.1068,20.3556 L42.1058,20.3556 L42.1058,20.3546 L42.1028,20.3546 L42.0108,20.3346 L42.0108,20.2596 L42.0098,20.2596 L42.0098,20.2586 L42.0068,20.2586 L41.9148,20.2386 L41.9148,20.1646 L41.9138,20.1646 L41.9138,20.1636 L41.9108,20.1636 L41.8188,20.1426 L41.8188,20.0686 L41.8178,20.0686 L41.8178,20.0676 L41.8148,20.0676 L41.7228,20.0466 L41.7228,19.9726 L41.7218,19.9726 L41.7218,19.9716 L41.7188,19.9716 L41.6268,19.9506 L41.6268,19.8766 L41.6268,19.8766 L41.6268,19.8756 L41.6228,19.8756 L41.5308,19.8556 L41.5308,19.7806 L41.5308,19.7806 L41.5308,19.7796 L41.5268,19.7796 L41.4348,19.7596 L41.4348,19.6856 L41.4348,19.6856 L41.4348,19.6846 L41.4308,19.6846 L41.3388,19.6636 L41.3388,19.5896 L41.3388,19.5896 L41.3388,19.5886 L41.3358,19.5886 L41.2438,19.5676 L41.2438,19.4936 L41.2428,19.4936 L41.2428,19.4926 L41.2398,19.4926 L41.1478,19.4716 L41.1478,19.3976 L41.1468,19.3976 L41.1468,19.3966 L41.1438,19.3966 L41.0518,19.3766 L41.0518,19.3016 L41.0508,19.3016 L41.0508,19.3006 L41.0478,19.3006 L40.9558,19.2806 L40.9558,19.2066 L40.9548,19.2066 L40.9548,19.2056 L40.9518,19.2056 L40.8598,19.1846 L40.8598,19.1106 L40.8598,19.1106 L40.8598,19.1096 L40.8558,19.1096 L40.7638,19.0886 L40.7638,19.0146 L40.7638,19.0146 L40.7638,19.0136 L40.7598,19.0136 L40.6678,18.9926 L40.6678,18.9186 L40.6678,18.9186 L40.6678,18.9176 L40.6638,18.9176 L40.5718,18.8976 L40.5718,18.8226 L40.5718,18.8226 L40.5718,18.8216 L40.5678,18.8216 L40.4768,18.8016 L40.4768,18.7266 L40.4758,18.7266 L40.4758,18.7266 L40.4728,18.7266 L40.3808,18.7056 L40.3808,18.6316 L40.3798,18.6316 L40.3798,18.6306 L40.3768,18.6306 L40.2848,18.6096 L40.2848,18.5356 L40.2838,18.5356 L40.2838,18.5346 L40.2808,18.5346 L40.1888,18.5136 L40.1888,18.4396 L40.1878,18.4396 L40.1878,18.4386 L40.1848,18.4386 L40.0928,18.4186 L40.0928,18.3436 L40.0918,18.3436 L40.0918,18.3426 L40.0888,18.3426 L39.9968,18.3216 L39.9968,18.2476 L39.9958,18.2476 L39.9958,18.2476 L39.9928,18.2476 L39.9008,18.2266 L39.9008,18.1526 L39.9008,18.1526 L39.9008,18.1516 L39.8968,18.1516 L39.8048,18.1306 L39.8048,18.0566 L39.8048,18.0566 L39.8048,18.0556 L39.8008,18.0556 L39.7098,18.0346 L39.7098,17.9606 L39.7088,17.9606 L39.7088,17.9596 L39.7058,17.9596 L39.6128,17.9396 L39.6128,17.8646 L39.6128,17.8646 L39.6128,17.8636 L39.6098,17.8636 L39.5178,17.8426 L39.5178,17.7686 L39.5168,17.7686 L39.5168,17.7676 L39.5138,17.7676 L39.4218,17.7476 L39.4218,17.6736 L39.4208,17.6736 L39.4208,17.6726 L39.4178,17.6726 L39.3258,17.6516 L39.3258,17.5776 L39.3248,17.5776 L39.3248,17.5766 L39.3218,17.5766 L39.2298,17.5556 L39.2298,17.4816 L39.2288,17.4816 L39.2288,17.4806 L39.2258,17.4806 L39.1338,17.4596 L39.1338,17.3856 L39.1328,17.3856 L39.1328,17.3846 L39.1298,17.3846 L39.0378,17.3636 L39.0378,17.2896 L39.0378,17.2896 L39.0378,17.2886 L39.0338,17.2886 L38.9418,17.2686 L38.9418,17.1946 L38.9418,17.1946 L38.9418,17.1936 L38.9378,17.1936 L38.8458,17.1726 L38.8458,17.0986 L38.8458,17.0986 L38.8458,17.0976 L38.8418,17.0976 L38.7508,17.0766 L38.7508,17.0026 L38.7498,17.0026 L38.7498,17.0016 L38.7468,17.0016 L38.6548,16.9806 L38.6548,16.9066 L38.6538,16.9066 L38.6538,16.9056 L38.6508,16.9056 L38.5588,16.8846 L38.5588,16.8106 L38.5578,16.8106 L38.5578,16.8096 L38.5548,16.8096 L38.4628,16.7896 L38.4628,16.7146 L38.4628,16.7146 L38.4628,16.7146 L38.4588,16.7146 C38.2958,16.6756 29.0338,14.4766 27.1938,21.5266 C27.1938,21.5276 27.1938,21.5296 27.1918,21.5316 C27.1878,21.5476 27.1838,21.5626 27.1798,21.5776 C26.8908,22.4596 26.9098,26.4946 26.9138,27.0026 L22.9588,27.0026 L22.9588,32.3996 L23.0548,32.3996 L23.0548,32.4956 L23.1518,32.4956 L23.1518,32.5906 L23.2468,32.5906 L23.2468,32.6876 L23.3428,32.6876 L23.3428,32.7826 L23.4388,32.7826 L23.4388,32.8786 L23.5348,32.8786 L23.5348,32.9746 L23.6308,32.9746 L23.6308,33.0696 L23.7268,33.0696 L23.7268,33.1666 L23.8218,33.1666 L23.8218,33.2616 L23.9188,33.2616 L23.9188,33.3576 L24.0138,33.3576 L24.0138,33.4536 L24.1098,33.4536 L24.1098,33.5496 L24.2058,33.5496 L24.2058,33.6456 L24.3018,33.6456 L24.3018,33.7406 L24.3978,33.7406 L24.3978,33.8366 L24.4928,33.8366 L24.4928,33.9326 L24.5888,33.9326 L24.5888,34.0286 L24.6848,34.0286 L24.6848,34.1246 L24.7808,34.1246 L24.7808,34.2196 L24.8768,34.2196 L24.8768,34.3156 L24.9728,34.3156 L24.9728,34.4116 L25.0688,34.4116 L25.0688,34.5076 L25.1648,34.5076 L25.1648,34.6036 L25.2608,34.6036 L25.2608,34.6986 L25.3568,34.6986 L25.3568,34.7946 L25.4518,34.7946 L25.4518,34.8906 L25.5478,34.8906 L25.5478,34.9866 L25.6438,34.9866 L25.6438,35.0826 L25.7398,35.0826 L25.7398,35.1776 L25.8358,35.1776 L25.8358,35.2746 L25.9318,35.2746 L25.9318,35.3696 L26.0278,35.3696 L26.0278,35.4656 L26.1238,35.4656 L26.1238,35.5616 L26.2188,35.5616 L26.2188,35.6566 L26.3158,35.6566 L26.3158,35.7536 L26.4108,35.7536 L26.4108,35.8486 L26.5068,35.8486 L26.5068,35.9446 L26.6028,35.9446 L26.6028,36.0406 L26.6988,36.0406 L26.6988,36.1366 L26.7948,36.1366 L26.7948,36.2326 L26.8908,36.2326 L26.8908,36.3276 L26.9858,36.3276 L26.9858,36.4236 L27.0828,36.4236 L27.0828,36.5196 L27.1588,36.5196 L27.1588,47.0796 L27.2548,47.0796 L27.2548,47.1756 L27.3508,47.1756 L27.3508,47.2716 L27.4468,47.2716 L27.4468,47.3666 L27.5428,47.3666 L27.5428,47.4626 L27.6378,47.4626 L27.6378,47.5586 L27.7348,47.5586 L27.7348,47.6546 L27.8308,47.6546 L27.8308,47.7506 L27.9258,47.7506 L27.9258,47.8456 L28.0218,47.8456 L28.0218,47.9426 L28.1178,47.9426 L28.1178,48.0376 L28.2138,48.0376 L28.2138,48.1336 L28.3098,48.1336 L28.3098,48.2296 L28.4058,48.2296 L28.4058,48.3246 L28.5018,48.3246 L28.5018,48.4216 L28.5968,48.4216 L28.5968,48.5166 L28.6928,48.5166 L28.6928,48.6126 L28.7888,48.6126 L28.7888,48.7086 L28.8848,48.7086 L28.8848,48.8046 L28.9808,48.8046 L28.9808,48.9006 L29.0768,48.9006 L29.0768,48.9956 L29.1728,48.9956 L29.1728,49.0916 L29.2688,49.0916 L29.2688,49.1876 L29.3638,49.1876 L29.3638,49.2836 L29.4608,49.2836 L29.4608,49.3796 L29.5558,49.3796 L29.5558,49.4746 L29.6518,49.4746 L29.6518,49.5706 L29.7478,49.5706 L29.7478,49.6666 L29.8438,49.6666 L29.8438,49.7626 L29.9398,49.7626 L29.9398,49.8586 L30.0358,49.8586 L30.0358,49.9536 L30.1308,49.9536 L30.1308,50.0496 L30.2278,50.0496 L30.2278,50.1456 L30.3228,50.1456 L30.3228,50.2416 L30.4188,50.2416 L30.4188,50.3376 L30.5148,50.3376 L30.5148,50.4326 L30.6108,50.4326 L30.6108,50.5286 L30.7068,50.5286 L30.7068,50.6246 L30.8028,50.6246 L30.8028,50.7206 L30.8988,50.7206 L30.8988,50.8166 L30.9948,50.8166 L30.9948,50.9116 L31.0898,50.9116 L31.0898,51.0076 L31.1858,51.0076 L31.1858,51.1036 L31.2818,51.1036 L31.2818,51.1996 L31.3778,51.1996 L31.3778,51.2956 L31.4738,51.2956 L31.4738,51.3916 L31.5698,51.3916 L31.5698,51.4866 L31.6658,51.4866 L31.6658,51.5826 L31.7618,51.5826 L31.7618,51.6786 L31.8578,51.6786 L31.8578,51.7746 L31.9538,51.7746 L31.9538,51.8706 L32.0488,51.8706 L32.0488,51.9656 L32.1448,51.9656 L32.1448,52.0616 L32.2408,52.0616 L32.2408,52.1576 L32.3368,52.1576 L32.3368,52.2536 L32.4328,52.2536 L32.4328,52.3496 L32.5288,52.3496 L32.5288,52.4446 L32.6248,52.4446 L32.6248,52.5406 L32.7208,52.5406 L32.7208,52.6366 L32.8168,52.6366 L32.8168,52.7326 L32.9118,52.7326 L32.9118,52.8286 L33.0078,52.8286 L33.0078,52.9236 L33.1038,52.9236 L33.1038,53.0196 L33.1998,53.0196 L33.1998,53.1156 L33.2958,53.1156 L33.2958,53.2116 L33.3918,53.2116 L33.3918,53.3076 L33.4878,53.3076 L33.4878,53.4026 L33.5838,53.4026 L33.5838,53.4986 L33.6788,53.4986 L33.6788,53.5946 L33.7758,53.5946 L33.7758,53.6906 L33.8708,53.6906 L33.8708,53.7866 L33.9668,53.7866 L33.9668,53.8816 L34.0628,53.8816 L34.0628,53.9786 L34.1588,53.9786 L34.1588,54.0736 L34.2548,54.0736 L34.2548,54.1696 L34.3508,54.1696 L34.3508,54.2656 L34.4468,54.2656 L34.4468,54.3606 L34.5428,54.3606 L34.5428,54.4576 L34.6378,54.4576 L34.6378,54.5526 L34.7338,54.5526 L34.7338,54.6486 L34.8298,54.6486 L34.8298,54.7446 L34.9258,54.7446 L34.9258,54.8406 L35.0218,54.8406 L35.0218,54.9366 L35.1178,54.9366 L35.1178,55.0316 L35.2138,55.0316 L35.2138,55.1276 L35.3098,55.1276 L35.3098,55.2236 L35.4048,55.2236 L35.4048,55.3196 L35.5018,55.3196 L35.5018,55.4156 L35.5968,55.4156 L35.5968,55.5106 L35.6928,55.5106 L35.6928,55.6066 L35.7888,55.6066 L35.7888,55.7026 L35.8848,55.7026 L35.8848,55.7986 L35.9808,55.7986 L35.9808,55.8946 L36.0768,55.8946 L36.0768,55.9896 L36.1728,55.9896 L36.1728,56.0856 L36.2688,56.0856 L36.2688,56.1816 L36.3638,56.1816 L36.3638,56.2776 L36.4598,56.2776 L36.4598,56.3736 L36.5558,56.3736 L36.5558,56.4686 L36.6518,56.4686 L36.6518,56.5656 L36.7478,56.5656 L36.7478,56.6606 L36.8438,56.6606 L36.8438,56.7566 L36.9398,56.7566 L36.9398,56.8526 L37.0358,56.8526 L37.0358,56.9476 L37.1308,56.9476 L37.1308,57.0446 L37.2278,57.0446 L37.2278,57.1396 L37.3228,57.1396 L37.3228,57.2356 L37.4188,57.2356 L37.4188,57.3316 L37.5148,57.3316 L37.5148,57.4276 L37.6108,57.4276 L37.6108,57.5236 L37.7068,57.5236 L37.7068,57.6186 L37.8028,57.6186 L37.8028,57.7146 L37.8988,57.7146 L37.8988,57.8106 L37.9948,57.8106 L37.9948,57.9066 L38.0898,57.9066 L38.0898,58.0026 L38.1858,58.0026 L38.1858,58.0976 L38.2818,58.0976 L38.2818,58.1936 L38.3778,58.1936 L38.3778,58.2896 L38.4738,58.2896 L38.4738,58.3856 L38.5698,58.3856 L38.5698,58.4816 L38.6658,58.4816 L38.6658,58.5766 L38.7618,58.5766 L38.7618,58.6726 L38.8578,58.6726 L38.8578,58.7686 L38.9528,58.7686 L38.9528,58.8646 L39.0488,58.8646 L39.0488,58.9606 L39.1448,58.9606 L39.1448,59.0556 L39.2408,59.0556 L39.2408,59.1516 L39.3368,59.1516 L39.3368,59.2476 L39.4328,59.2476 L39.4328,59.3426 L39.5288,59.3426 L39.5288,59.4396 L39.6248,59.4396 L39.6248,59.5346 L39.7208,59.5346 L39.7208,59.6306 L39.8168,59.6306 L39.8168,59.7266 L39.9118,59.7266 L39.9118,59.8226 L40.0078,59.8226 L40.0078,59.9186 L40.1038,59.9186 L40.1038,60.0136 L40.1998,60.0136 L40.1998,60.1096 L40.2958,60.1096 L40.2958,60.2056 L40.3918,60.2056 L40.3918,60.3016 L40.4868,60.3016 L40.4868,60.3976 L40.5838,60.3976 L40.5838,60.4926 L40.6788,60.4926 L40.6788,60.5886 L40.7758,60.5886 L40.7758,60.6846 L40.8708,60.6846 L40.8708,60.7806 L40.9668,60.7806 L40.9668,60.8766 L41.0628,60.8766 L41.0628,60.9716 L41.1588,60.9716 L41.1588,61.0676 L41.2548,61.0676 L41.2548,61.1636 L41.3508,61.1636 L41.3508,61.2596 L41.4458,61.2596 L41.4458,61.3556 L41.5428,61.3556 L41.5428,61.4506 L41.6378,61.4506 L41.6378,61.5476 L41.7338,61.5476 L41.7338,61.6426 L41.8298,61.6426 L41.8298,61.7386 L41.9258,61.7386 L41.9258,61.8346 L42.0218,61.8346 L42.0218,61.9296 L42.1168,61.9296 L42.1168,62.0006 C45.0438,61.7756 47.9688,61.4636 50.8948,61.0646 C55.8928,60.3826 59.3828,56.8926 60.0648,51.8956 C60.6278,47.7656 61.0178,43.6366 61.2348,39.5066" id="Fill-4" fill="#020303" opacity="0.100000001"></path>
            <path d="M37.954,27.0027 L33.391,27.0027 L33.391,23.9677 C33.725,21.1007 38.463,21.6447 38.463,21.6447 L38.464,21.4487 L38.463,21.4267 L38.463,16.7147 L38.462,16.7147 L38.462,16.7137 L38.459,16.7137 C38.296,16.6757 29.034,14.4767 27.194,21.5257 C27.194,21.5277 27.194,21.5297 27.191,21.5317 C27.188,21.5467 27.183,21.5627 27.18,21.5777 C26.891,22.4597 26.91,26.4947 26.914,27.0027 L22.959,27.0027 L22.959,32.3997 L27.159,32.3997 L27.159,47.0797 L33.275,47.0797 L33.275,32.3997 L37.953,32.3997 L38.48,27.0027 L37.954,27.0027 Z" id="Fill-6" fill="#FEFEFE"></path>
        </g>
    </g>
</svg>