<?xml version="1.0" encoding="UTF-8"?>
<svg width="62px" height="63px" viewBox="0 0 62 63" version="1.1" xmlns="http://www.w3.org/2000/svg" xmlns:xlink="http://www.w3.org/1999/xlink">
    <title>instagram</title>
    <defs>
        <polygon id="path-1" points="0 0.56075 61.44 0.56075 61.44 62 0 62"></polygon>
    </defs>
    <g id="changes" stroke="none" stroke-width="1" fill="none" fill-rule="evenodd">
        <g id="instagram">
            <g id="Group-3" transform="translate(0.000000, 0.439700)">
                <mask id="mask-2" fill="white">
                    <use xlink:href="#path-1"></use>
                </mask>
                <g id="Clip-2"></g>
                <path d="M10.5451,1.9355 C23.9941,0.1025 37.4451,0.1025 50.8951,1.9355 C55.8931,2.6165 59.3831,6.1075 60.0651,11.1055 C61.8991,24.5545 61.8991,38.0055 60.0651,51.4555 C59.3831,56.4525 55.8931,59.9435 50.8951,60.6245 C37.4451,62.4585 23.9941,62.4585 10.5451,60.6245 C5.5471,59.9435 2.0571,56.4525 1.3751,51.4555 C-0.4589,38.0055 -0.4589,24.5545 1.3751,11.1055 C2.0571,6.1075 5.5471,2.6165 10.5451,1.9355" id="Fill-1" fill="#4D494A" mask="url(#mask-2)"></path>
            </g>
            <path d="M43.634,19.1169 L43.633,19.1159 L43.553,19.0359 L43.551,19.0339 C41.814,17.2689 39.488,16.6259 36.686,16.4589 C33.82,16.2879 24.402,16.2089 21.877,16.8359 C20.673,17.1349 19.48,17.6519 18.615,18.4269 C17.613,19.3259 18.232,18.6899 17.225,19.8599 C15.957,21.3319 15.604,23.7819 15.511,25.6919 C15.357,28.8789 15.159,37.8169 15.836,40.6189 C16.235,42.2679 16.965,43.5389 17.942,44.4969 L18.035,44.5909 L18.106,44.6609 L18.179,44.7349 L18.262,44.8179 L18.349,44.9049 L18.421,44.9769 L18.501,45.0569 L18.597,45.1529 L18.675,45.2309 L18.748,45.3039 L18.822,45.3779 L18.922,45.4779 L19.001,45.5559 L19.074,45.6299 L19.171,45.7269 L19.235,45.7899 L19.33,45.8849 L19.409,45.9639 L19.484,46.0389 L19.567,46.1219 L19.655,46.2109 L19.735,46.2889 L19.809,46.3639 L19.895,46.4499 L19.987,46.5409 L20.052,46.6059 L20.134,46.6889 L20.219,46.7739 L20.311,46.8649 L20.389,46.9429 L20.455,47.0099 L20.55,47.1049 L20.613,47.1669 L20.712,47.2669 L20.778,47.3319 L20.869,47.4239 L20.956,47.5109 L21.022,47.5759 L21.113,47.6679 L21.2,47.7549 L21.276,47.8299 L21.363,47.9179 L21.439,47.9929 L21.526,48.0789 L21.599,48.1529 L21.697,48.2509 L21.762,48.3159 L21.846,48.3999 L21.933,48.4869 L22.005,48.5589 L22.087,48.6409 L22.169,48.7229 L22.269,48.8219 L22.328,48.8819 L22.422,48.9759 L22.498,49.0519 L22.572,49.1259 L22.666,49.2199 L22.741,49.2949 L22.824,49.3779 L22.912,49.4659 L22.98,49.5329 L23.074,49.6269 L23.14,49.6929 L23.232,49.7849 L23.322,49.8749 L23.395,49.9479 L23.483,50.0359 L23.55,50.1029 L23.645,50.1979 L23.711,50.2629 L23.804,50.3569 L23.898,50.4499 L23.958,50.5109 L24.053,50.6049 L24.119,50.6719 L24.214,50.7669 L24.28,50.8319 L24.371,50.9249 L24.46,51.0129 L24.527,51.0789 L24.621,51.1729 L24.696,51.2479 L24.781,51.3339 L24.854,51.4059 L24.948,51.5009 L25.028,51.5789 L25.1,51.6519 L25.182,51.7339 L25.28,51.8319 L25.344,51.8959 L25.425,51.9769 L25.506,52.0579 L25.604,52.1559 L25.682,52.2339 L25.749,52.3009 L25.844,52.3959 L25.911,52.4629 L26.005,52.5569 L26.071,52.6219 L26.162,52.7149 L26.249,52.8009 L26.324,52.8759 L26.407,52.9589 L26.494,53.0449 L26.569,53.1199 L26.651,53.2019 L26.725,53.2759 L26.82,53.3709 L26.895,53.4459 L26.978,53.5289 L27.066,53.6169 L27.133,53.6839 L27.228,53.7789 L27.293,53.8439 L27.385,53.9359 L27.474,54.0239 L27.552,54.1019 L27.624,54.1759 L27.706,54.2569 L27.805,54.3549 L27.869,54.4199 L27.942,54.4919 L28.032,54.5829 L28.131,54.6819 L28.197,54.7479 L28.283,54.8339 L28.378,54.9279 L28.447,54.9979 L28.522,55.0719 L28.605,55.1549 L28.688,55.2379 L28.776,55.3259 L28.853,55.4029 L28.946,55.4949 L29.012,55.5619 L29.095,55.6449 L29.184,55.7329 L29.251,55.8009 L29.346,55.8949 L29.423,55.9719 L29.516,56.0649 L29.582,56.1319 L29.665,56.2149 L29.754,56.3029 L29.821,56.3699 L29.915,56.4649 L29.993,56.5419 L30.086,56.6349 L30.153,56.7009 L30.235,56.7839 L30.322,56.8719 L30.389,56.9379 L30.484,57.0329 L30.557,57.1059 L30.655,57.2039 L30.713,57.2619 L30.806,57.3549 L30.896,57.4439 L30.968,57.5169 L31.043,57.5919 L31.138,57.6869 L31.204,57.7539 L31.299,57.8479 L31.364,57.9129 L31.456,58.0049 L31.543,58.0919 L31.618,58.1669 L31.706,58.2549 L31.78,58.3299 L31.867,58.4159 L31.941,58.4899 L32.039,58.5879 L32.105,58.6529 L32.188,58.7369 L32.275,58.8229 L32.348,58.8959 L32.43,58.9779 L32.512,59.0599 L32.611,59.1589 L32.671,59.2189 L32.765,59.3129 L32.84,59.3879 L32.914,59.4619 L33.009,59.5569 L33.083,59.6319 L33.167,59.7149 L33.255,59.8029 L33.334,59.8809 L33.407,59.9549 L33.49,60.0379 L33.576,60.1239 L33.67,60.2169 L33.731,60.2779 L33.825,60.3719 L33.892,60.4389 L33.987,60.5339 L34.052,60.5989 L34.145,60.6919 L34.236,60.7829 L34.313,60.8589 L34.378,60.9249 L34.47,61.0169 L34.561,61.1069 L34.618,61.1659 L34.707,61.2539 L34.802,61.3489 L34.868,61.4159 L34.963,61.5099 L35.038,61.5849 L35.125,61.6719 L35.197,61.7439 L35.279,61.8249 L35.376,61.9229 L35.454,62.0009 L35.522,62.0679 L35.616,62.1629 L35.684,62.2299 L35.778,62.3239 L35.807,62.3519 C40.836,62.1799 45.865,61.7499 50.895,61.0639 C55.893,60.3839 59.383,56.8919 60.065,51.8949 C60.749,46.8719 61.178,41.8479 61.352,36.8249 L61.313,36.7849 L61.307,36.7789 L61.225,36.6979 L61.225,36.6969 L61.216,36.6889 L61.151,36.6239 L61.144,36.6169 L61.134,36.6069 L61.077,36.5509 L60.983,36.4559 L60.908,36.3809 L60.901,36.3739 L60.9,36.3719 L60.818,36.2909 L60.818,36.2899 L60.737,36.2089 L60.736,36.2079 L60.726,36.1999 L60.661,36.1349 L60.655,36.1279 L60.645,36.1179 L60.588,36.0619 L60.498,35.9719 L60.406,35.8799 L60.329,35.8029 L60.324,35.7979 L60.263,35.7369 L60.168,35.6419 L60.094,35.5679 L60.086,35.5599 L60.085,35.5579 L60.003,35.4769 L60.003,35.4759 L59.922,35.3959 L59.921,35.3939 L59.84,35.3139 L59.839,35.3129 L59.83,35.3039 L59.766,35.2399 L59.759,35.2329 L59.748,35.2219 L59.7,35.1749 L59.595,35.0689 L59.515,34.9889 L59.513,34.9869 L59.434,34.9079 L59.431,34.9049 L59.352,34.8259 L59.349,34.8229 L59.271,34.7439 L59.267,34.7409 L59.258,34.7319 L59.196,34.6699 L59.189,34.6629 L59.176,34.6499 L59.127,34.6019 L59.03,34.5039 L58.948,34.4219 L58.945,34.4189 L58.939,34.4129 L58.87,34.3449 L58.863,34.3379 L58.858,34.3309 L58.789,34.2629 L58.781,34.2559 L58.776,34.2499 L58.715,34.1899 L58.625,34.0999 L58.543,34.0179 L58.537,34.0119 L58.456,33.9299 L58.455,33.9299 L58.374,33.8489 L58.374,33.8479 L58.293,33.7679 L58.292,33.7659 L58.212,33.6859 L58.21,33.6839 L58.2,33.6759 L58.137,33.6119 L58.13,33.6049 L58.119,33.5939 L58.064,33.5389 L57.969,33.4439 L57.887,33.3619 L57.886,33.3609 L57.877,33.3519 L57.82,33.2949 L57.73,33.2049 L57.637,33.1129 L57.561,33.0349 L57.556,33.0309 L57.487,32.9619 L57.479,32.9539 L57.474,32.9489 L57.413,32.8879 L57.311,32.7849 L57.25,32.7249 L57.155,32.6299 L57.073,32.5479 L57.072,32.5469 L57.063,32.5379 L56.997,32.4719 L56.99,32.4659 L56.981,32.4559 L56.924,32.3999 L56.834,32.3089 L56.741,32.2169 L56.664,32.1399 L56.659,32.1349 L56.599,32.0749 L56.503,31.9789 L56.429,31.9049 L56.421,31.8969 L56.42,31.8959 L56.339,31.8139 L56.338,31.8139 L56.257,31.7329 L56.256,31.7319 L56.247,31.7229 L56.183,31.6589 L56.176,31.6519 L56.165,31.6409 L56.11,31.5859 L56.025,31.4999 L55.931,31.4069 L55.85,31.3259 L55.849,31.3249 L55.769,31.2439 L55.767,31.2419 L55.687,31.1629 L55.685,31.1599 L55.676,31.1519 L55.613,31.0889 L55.606,31.0819 L55.594,31.0699 L55.539,31.0149 L55.449,30.9259 L55.367,30.8439 L55.362,30.8379 L55.28,30.7559 L55.28,30.7559 L55.198,30.6749 L55.197,30.6739 L55.117,30.5939 L55.115,30.5919 L55.107,30.5829 L55.042,30.5189 L55.035,30.5119 L55.025,30.5009 L54.969,30.4459 L54.875,30.3509 L54.793,30.2689 L54.791,30.2679 L54.71,30.1859 L54.709,30.1859 L54.629,30.1049 L54.627,30.1039 L54.547,30.0239 L54.546,30.0219 L54.536,30.0129 L54.473,29.9499 L54.466,29.9419 L54.454,29.9309 L54.399,29.8759 L54.296,29.7729 L54.229,29.7059 L54.221,29.6979 L54.215,29.6919 L54.163,29.6399 L54.069,29.5449 L53.975,29.4509 L53.896,29.3719 L53.893,29.3689 L53.815,29.2909 L53.811,29.2869 L53.733,29.2099 L53.729,29.2059 L53.72,29.1969 L53.663,29.1409 L53.58,29.0569 L53.498,28.9749 L53.488,28.9659 L53.407,28.8839 L53.406,28.8839 L53.398,28.8749 L53.332,28.8099 L53.325,28.8029 L53.316,28.7929 L53.259,28.7369 L53.164,28.6419 L53.082,28.5599 L53.081,28.5589 L53,28.4769 L52.999,28.4769 L52.927,28.4049 L52.918,28.3959 L52.917,28.3949 L52.837,28.3139 L52.835,28.3129 L52.755,28.2329 L52.753,28.2309 L52.674,28.1519 L52.672,28.1489 L52.593,28.0709 L52.59,28.0669 L52.58,28.0579 L52.518,27.9959 L52.511,27.9889 L52.499,27.9769 L52.445,27.9229 L52.355,27.8329 L52.273,27.7509 L52.267,27.7449 L52.186,27.6629 L52.185,27.6629 L52.104,27.5819 L52.103,27.5809 L52.023,27.5009 L52.021,27.4989 L52.012,27.4899 L51.948,27.4269 L51.942,27.4189 L51.93,27.4089 L51.874,27.3529 L51.772,27.2499 L51.712,27.1909 L51.622,27.0999 L51.54,27.0179 L51.534,27.0119 L51.452,26.9309 L51.452,26.9299 L51.443,26.9219 L51.378,26.8569 L51.371,26.8489 L51.362,26.8399 L51.305,26.7839 L51.21,26.6889 L51.136,26.6139 L51.128,26.6069 L51.127,26.6049 L51.045,26.5239 L51.045,26.5229 L50.964,26.4419 L50.963,26.4409 L50.882,26.3609 L50.881,26.3589 L50.872,26.3499 L50.808,26.2869 L50.801,26.2799 L50.79,26.2689 L50.735,26.2129 L50.632,26.1109 L50.564,26.0429 L50.557,26.0349 L50.55,26.0289 L50.498,25.9779 L50.399,25.8769 L50.317,25.7949 L50.313,25.7909 L50.231,25.7099 L50.231,25.7089 L50.15,25.6289 L50.149,25.6269 L50.068,25.5469 L50.067,25.5459 L50.058,25.5369 L49.993,25.4729 L49.987,25.4659 L49.976,25.4549 L49.928,25.4079 L49.822,25.3019 L49.742,25.2209 L49.74,25.2199 L49.661,25.1399 L49.658,25.1379 L49.579,25.0589 L49.576,25.0549 L49.498,24.9769 L49.494,24.9739 L49.486,24.9649 L49.423,24.9029 L49.416,24.8959 L49.404,24.8839 L49.362,24.8419 L49.258,24.7379 L49.166,24.6459 L49.098,24.5779 L49.091,24.5709 L49.084,24.5639 L49.025,24.5049 L48.93,24.4089 L48.848,24.3279 L48.847,24.3259 L48.765,24.2449 L48.765,24.2439 L48.684,24.1629 L48.683,24.1619 L48.603,24.0819 L48.601,24.0799 L48.521,24.0009 L48.519,23.9989 L48.44,23.9189 L48.437,23.9169 L48.428,23.9079 L48.364,23.8449 L48.358,23.8379 L48.346,23.8259 L48.291,23.7719 L48.201,23.6819 L48.119,23.5989 L48.113,23.5939 L48.032,23.5129 L48.031,23.5119 L47.95,23.4309 L47.949,23.4299 L47.869,23.3489 L47.867,23.3479 L47.859,23.3389 L47.795,23.2749 L47.788,23.2679 L47.777,23.2579 L47.721,23.2019 L47.627,23.1069 L47.545,23.0249 L47.543,23.0239 L47.534,23.0149 L47.477,22.9579 L47.387,22.8679 L47.295,22.7759 L47.218,22.6989 L47.213,22.6939 L47.144,22.6249 L47.137,22.6169 L47.131,22.6119 L47.071,22.5509 L46.968,22.4489 L46.907,22.3879 L46.813,22.2929 L46.731,22.2119 L46.729,22.2099 L46.72,22.2009 L46.655,22.1359 L46.648,22.1289 L46.638,22.1189 L46.581,22.0629 L46.487,21.9679 L46.405,21.8859 L46.404,21.8849 L46.322,21.8039 L46.322,21.8029 L46.249,21.7309 L46.24,21.7209 L46.239,21.7209 L46.159,21.6399 L46.157,21.6389 L46.077,21.5589 L46.075,21.5569 L45.996,21.4769 L45.993,21.4749 L45.914,21.3959 L45.912,21.3929 L45.903,21.3839 L45.84,21.3219 L45.833,21.3149 L45.821,21.3029 L45.767,21.2479 L45.682,21.1629 L45.588,21.0699 L45.508,20.9889 L45.506,20.9879 L45.426,20.9079 L45.424,20.9059 L45.345,20.8259 L45.342,20.8239 L45.333,20.8149 L45.27,20.7519 L45.263,20.7449 L45.251,20.7329 L45.196,20.6789 L45.107,20.5889 L45.025,20.5069 L45.019,20.5009 L44.938,20.4189 L44.937,20.4189 L44.857,20.3379 L44.855,20.3369 L44.775,20.2569 L44.774,20.2549 L44.764,20.2459 L44.7,20.1819 L44.694,20.1749 L44.682,20.1639 L44.626,20.1089 L44.524,20.0059 L44.464,19.9469 L44.374,19.8559 L44.292,19.7739 L44.286,19.7679 L44.204,19.6869 L44.204,19.6859 L44.196,19.6779 L44.13,19.6129 L44.123,19.6059 L44.113,19.5959 L44.057,19.5389 L43.962,19.4449 L43.88,19.3629 L43.879,19.3619 L43.806,19.2889 L43.797,19.2799 L43.797,19.2799 L43.725,19.2079 L43.716,19.1989 L43.715,19.1979 L43.634,19.1169 Z" id="Fill-4" fill="#020303" opacity="0.100000001"></path>
            <path d="M30.7199,19.1276 C34.8219,19.1276 35.3069,19.1436 36.9269,19.2166 C38.4239,19.2856 39.2379,19.5356 39.7789,19.7456 C40.4949,20.0246 41.0069,20.3576 41.5449,20.8946 C42.0819,21.4326 42.4149,21.9436 42.6939,22.6606 C42.9049,23.2026 43.1549,24.0156 43.2229,25.5126 C43.2969,27.1326 43.3119,27.6186 43.3119,31.7196 C43.3119,35.8206 43.2969,36.3066 43.2229,37.9266 C43.1549,39.4236 42.9049,40.2376 42.6939,40.7786 C42.4149,41.4956 42.0819,42.0076 41.5449,42.5446 C41.0069,43.0826 40.4949,43.4156 39.7789,43.6936 C39.2379,43.9046 38.4239,44.1546 36.9269,44.2226 C35.3069,44.2966 34.8219,44.3126 30.7199,44.3126 C26.6179,44.3126 26.1329,44.2966 24.5129,44.2226 C23.0159,44.1546 22.2019,43.9046 21.6609,43.6936 C20.9449,43.4156 20.4329,43.0826 19.8949,42.5446 C19.3579,42.0076 19.0249,41.4956 18.7459,40.7786 C18.5349,40.2376 18.2849,39.4236 18.2169,37.9266 C18.1429,36.3066 18.1269,35.8206 18.1269,31.7196 C18.1269,27.6186 18.1429,27.1326 18.2169,25.5126 C18.2849,24.0156 18.5349,23.2026 18.7459,22.6606 C19.0249,21.9436 19.3579,21.4326 19.8949,20.8946 C20.4329,20.3576 20.9449,20.0246 21.6609,19.7456 C22.2019,19.5356 23.0159,19.2856 24.5129,19.2166 C26.1329,19.1436 26.6179,19.1276 30.7199,19.1276 L30.7199,19.1276 Z M30.7199,23.8326 C35.0759,23.8326 38.6079,27.3636 38.6079,31.7196 C38.6079,36.0766 35.0759,39.6066 30.7199,39.6066 C26.3639,39.6066 22.8319,36.0766 22.8319,31.7196 C22.8319,27.3636 26.3639,23.8326 30.7199,23.8326 L30.7199,23.8326 Z M30.7199,36.8396 C27.8919,36.8396 25.5999,34.5476 25.5999,31.7196 C25.5999,28.8916 27.8919,26.5996 30.7199,26.5996 C33.5479,26.5996 35.8399,28.8916 35.8399,31.7196 C35.8399,34.5476 33.5479,36.8396 30.7199,36.8396 L30.7199,36.8396 Z M40.7619,23.5206 C40.7619,24.5386 39.9369,25.3636 38.9189,25.3636 C37.9019,25.3636 37.0759,24.5386 37.0759,23.5206 C37.0759,22.5026 37.9019,21.6776 38.9189,21.6776 C39.9369,21.6776 40.7619,22.5026 40.7619,23.5206 L40.7619,23.5206 Z M30.3389,16.3596 C26.5149,16.3606 25.9739,16.3796 24.3869,16.4526 C22.7519,16.5266 21.6359,16.7866 20.6579,17.1666 C19.6489,17.5586 18.7919,18.0846 17.9379,18.9376 C17.0839,19.7916 16.5589,20.6486 16.1659,21.6586 C15.7859,22.6356 15.5269,23.7526 15.4519,25.3866 C15.3779,27.0246 15.3599,27.5486 15.3599,31.7196 C15.3599,35.8916 15.3779,36.4146 15.4519,38.0526 C15.5269,39.6876 15.7859,40.8036 16.1659,41.7806 C16.5589,42.7916 17.0839,43.6476 17.9379,44.5016 C18.7919,45.3556 19.6489,45.8806 20.6579,46.2736 C21.6359,46.6526 22.7519,46.9126 24.3869,46.9876 C26.0259,47.0626 26.5479,47.0796 30.7199,47.0796 C34.8919,47.0796 35.4139,47.0626 37.0529,46.9876 C38.6879,46.9126 39.8039,46.6526 40.7819,46.2736 C41.7909,45.8806 42.6479,45.3556 43.5019,44.5016 C44.3559,43.6476 44.8809,42.7916 45.2739,41.7806 C45.6539,40.8036 45.9129,39.6876 45.9879,38.0526 C46.0599,36.4656 46.0789,35.9246 46.0799,32.1006 L46.0799,31.3396 C46.0789,27.5146 46.0599,26.9746 45.9879,25.3866 C45.9129,23.7526 45.6539,22.6356 45.2739,21.6586 C44.8809,20.6486 44.3559,19.7916 43.5019,18.9376 C42.6479,18.0846 41.7909,17.5586 40.7819,17.1666 C39.8039,16.7866 38.6879,16.5266 37.0529,16.4526 C35.4659,16.3796 34.9249,16.3606 31.1009,16.3596 L30.3389,16.3596 Z" id="Fill-6" fill="#FEFEFE"></path>
        </g>
    </g>
</svg>