<svg width="62" height="62" viewBox="0 0 62 62" fill="none" xmlns="http://www.w3.org/2000/svg">
<g clip-path="url(#clip0_606_2)">
<path fill-rule="evenodd" clip-rule="evenodd" d="M10.54 1.38C23.99 -0.46 37.45 -0.46 50.9 1.38C55.9 2.06 59.39 5.55 60.07 10.55C61.9 24 61.9 37.45 60.07 50.9C59.39 55.9 55.9 59.39 50.9 60.07C37.45 61.9 24 61.9 10.55 60.07C5.55 59.39 2.06 55.9 1.38 50.9C-0.46 37.45 -0.46 23.99 1.38 10.54C2.06 5.55 5.55 2.06 10.54 1.38Z" fill="#4D494A"/>
<path opacity="0.1" fill-rule="evenodd" clip-rule="evenodd" d="M61.3844 34.8771C61.2348 40.2181 60.7967 45.559 60.07 50.9C59.39 55.9 55.9 59.39 50.9 60.07C48.2489 60.4307 45.5978 60.7203 42.9467 60.9388L16 30L25.5 28L33 22.5L45.5 18L61.3844 34.8771Z" fill="#020303"/>
<path fill-rule="evenodd" clip-rule="evenodd" d="M24.4 32.43C24.89 31.78 35.24 25.47 36.43 24.72C37.34 24.14 39.58 22.4 40.6 22.56C40.6 23.27 36.37 26.59 35.7 27.31L30.01 32.5C29.84 32.66 29.69 32.77 29.5 32.92C29.11 33.23 28.91 33.5 28.54 33.82C27.38 34.81 27.44 34.38 27.26 36.42C27.16 37.6 27.04 38.77 26.94 39.94L24.41 32.44L24.4 32.43ZM15.36 29.77C15.73 30.75 17.55 31.03 19.02 31.51C24.36 33.23 22.86 31.61 24.75 37.47C25.11 38.58 25.81 41.27 26.42 41.97C28.17 42.11 28.54 41.03 29.37 40.24C29.95 39.69 31.21 38.37 31.78 38.04C32.21 38.42 32.8 38.8 33.29 39.15L38.09 42.71C41.47 45.19 41.34 42 42.29 37.61C42.61 36.12 46.08 20.41 46.08 19.28C46.07 16.88 43.56 18.14 42.76 18.44C41.39 18.96 40.11 19.47 38.74 19.99C36.07 21 33.43 22.03 30.78 23.05C28.1 24.09 25.49 25.06 22.83 26.12L16.8 28.46C16.08 28.75 15.49 29.11 15.35 29.76L15.36 29.77Z" fill="white"/>
</g>
<defs>
<clipPath id="clip0_606_2">
<rect width="61.44" height="61.44" fill="white"/>
</clipPath>
</defs>
</svg>
