<svg width="40" height="40" viewBox="0 0 40 40" fill="none" xmlns="http://www.w3.org/2000/svg">
<rect width="40" height="40" rx="20" fill="#139BD0"/>
<path d="M18.5956 25.7681C17.6602 26.6733 16.7328 27.5636 15.814 28.4608C15.4929 28.7751 15.1317 28.9488 14.6708 28.9247C14.3561 28.9081 14.1801 28.7708 14.0835 28.4742C13.3796 26.3038 12.6654 24.1388 11.9653 21.9663C11.8973 21.7555 11.7969 21.6531 11.582 21.5871C9.92378 21.0841 8.26876 20.5692 6.61644 20.0474C6.3622 19.967 6.10579 19.8618 5.8861 19.7133C5.54656 19.4848 5.4969 19.1121 5.80135 18.844C6.08258 18.5967 6.41834 18.3811 6.76705 18.2438C8.79398 17.4458 10.8317 16.6736 12.8662 15.8943C18.0294 13.9138 23.1925 11.9349 28.3562 9.95435C29.3381 9.57734 30.0928 10.1083 29.9907 11.1632C29.9254 11.8378 29.7495 12.5017 29.6075 13.1678C28.4863 18.4273 27.3641 23.6872 26.237 28.9456C25.9693 30.1941 25.0867 30.5202 24.0524 29.7624C22.3202 28.494 20.5896 27.2214 18.8585 25.9509C18.7759 25.8914 18.6901 25.834 18.5956 25.7681ZM14.9835 27.4558C15.0028 27.4505 15.0222 27.4452 15.0415 27.4405C15.0522 27.3922 15.0678 27.3449 15.0721 27.2971C15.1827 26.1291 15.2998 24.9617 15.3959 23.7917C15.4174 23.5311 15.5087 23.3461 15.709 23.1707C17.2975 21.781 18.8763 20.3824 20.4584 18.987C22.2096 17.4418 23.9613 15.8982 25.7061 14.3467C25.814 14.2511 25.8592 14.0882 25.9333 13.9558C25.7689 13.9385 25.5928 13.8738 25.4435 13.9117C25.24 13.9632 25.0472 14.0787 24.8657 14.1907C21.0008 16.5723 17.1391 18.9581 13.2715 21.3349C13.0529 21.4694 13.0121 21.5834 13.0953 21.8183C13.3805 22.6195 13.6399 23.4281 13.9089 24.2351C14.2671 25.309 14.6253 26.3824 14.9835 27.4558Z" fill="white"/>
</svg>
