<svg xmlns="http://www.w3.org/2000/svg" width="214" height="184" viewBox="0 0 214 184">
    <defs>
        <filter id="a" width="135.3%" height="196.8%" x="-17.6%" y="-48.4%" filterUnits="objectBoundingBox">
            <feGaussianBlur in="SourceGraphic" stdDeviation="10"/>
        </filter>
        <filter id="b" width="196.8%" height="400%" x="-48.4%" y="-150%" filterUnits="objectBoundingBox">
            <feGaussianBlur in="SourceGraphic" stdDeviation="10"/>
        </filter>
    </defs>
    <g fill="none" fill-rule="evenodd" transform="translate(11)">
        <path fill="#757575" fill-opacity=".5" d="M96.13 158.012c45.865 0 94.263 6.136 83.046-19.56-11.217-25.697-37.325-41.038-83.19-41.038-45.865 0-69.205 12.273-82.901 41.038-13.696 28.765 37.18 19.56 83.045 19.56z" filter="url(#a)" opacity=".5"/>
        <path fill="#FCFCFC" d="M191.8 160l-45.059-21.514-51.073 18.994-50.82-18.994L0 160l26.325-95.891L58.85 48l36.818 14.362L132.833 48l33.47 17.273z"/>
        <path fill="#E1E1E1" d="M132.833 48l13.908 90.486L191.801 160l-25.497-94.727z"/>
        <path fill="#F9F9F9" d="M132.833 48L95.9 60.022 95.668 158l51.073-19.084z"/>
        <path fill="#F0F0F0" d="M58.85 48l-14.001 90.916L95.9 158V60.022z"/>
        <ellipse cx="96.157" cy="98" fill="#757575" fill-opacity=".5" filter="url(#b)" opacity=".5" rx="31" ry="10"/>
        <path fill="#F9F9F9" fill-rule="nonzero" d="M95.858 0c21.91.025 39.666 17.82 39.69 39.78 0 21.436-36.529 56.393-38.084 57.858a2.33 2.33 0 0 1-3.212 0c-1.555-1.465-38.084-36.422-38.084-57.858C56.193 17.82 73.948.025 95.858 0zm0 23.4c-7.736 0-14.008 6.286-14.008 14.04s6.272 14.04 14.008 14.04c7.733-.01 14-6.29 14.008-14.04 0-7.754-6.271-14.04-14.008-14.04z"/>
    </g>
</svg>
