<?xml version="1.0" encoding="UTF-8"?>
<svg width="166px" height="166px" viewBox="0 0 166 166" version="1.1" xmlns="http://www.w3.org/2000/svg" xmlns:xlink="http://www.w3.org/1999/xlink">
    <title>efood</title>
    <g id="Web" stroke="none" stroke-width="1" fill="none" fill-rule="evenodd">
        <g id="efood">
            <circle id="Oval-Copy-6" fill="#EE2C2E" cx="83" cy="83" r="83"></circle>
            <g id="efood-copy" transform="translate(30.000000, 29.000000)" fill="#FFFFFF">
                <path d="M73.2542,77.1936 C60.3472,87.7406 43.0252,86.2136 32.2522,76.4166 C21.2182,66.3826 18.7062,50.3406 26.1712,37.4676 C33.4832,24.8596 48.8282,18.9526 62.6282,23.3986 C76.4712,27.8586 83.4832,40.3396 84.1012,49.5406 C81.8732,49.5406 79.6502,49.5596 77.4312,49.5086 C77.2322,49.5046 76.9232,49.0726 76.8672,48.7986 C74.1402,35.5706 62.3022,27.3636 48.9912,29.4946 C35.8542,31.5976 26.7322,44.9896 29.5582,58.0256 C32.6372,72.2326 46.7622,80.4576 60.6342,76.1056 C63.5792,75.1816 66.2242,73.6956 68.6202,71.6626 C67.0252,69.7656 65.4752,67.9206 63.9262,66.0786 C56.3912,72.0166 47.2152,70.4436 41.8712,65.5266 C36.3702,60.4646 34.8722,52.2886 38.3002,45.5826 C41.6632,39.0056 49.1992,35.3176 56.3072,36.7686 C62.8572,38.1066 68.9972,44.0606 69.3542,49.5706 L50.2122,49.5706 C52.1322,51.8766 53.9022,53.9616 55.6192,56.0896 C56.1052,56.6916 56.6102,56.9366 57.3922,56.9356 C73.2952,56.9136 89.1982,56.9196 105.1012,56.9166 C105.4762,56.9166 105.8512,56.8786 106.2152,56.8586 C107.8872,35.6926 95.5062,11.7416 70.4742,2.9836 C44.8872,-5.9684 17.6082,5.9106 5.7032,29.3986 C-6.2628,53.0066 1.1232,81.6766 22.9542,96.8616 C44.4162,111.7916 71.3742,107.8236 87.2752,93.8996 C85.7292,92.0586 84.1832,90.2156 82.6092,88.3416 C73.4202,95.7986 63.0152,99.4356 51.2502,98.9476 C39.4762,98.4586 29.3662,94.0106 20.9842,85.7766 C5.7672,70.8266 2.9362,47.2206 14.1722,29.1726 C25.7062,10.6456 47.7462,3.0316 67.8262,9.7986 C88.4732,16.7566 98.1982,35.6356 98.7002,49.5326 C96.4772,49.5326 94.2572,49.5476 92.0382,49.5026 C91.8762,49.4996 91.6312,49.0846 91.5812,48.8306 C91.3652,47.7396 91.2392,46.6316 91.0262,45.5406 C87.1822,25.8836 67.9832,11.1996 46.0502,15.2376 C25.2092,19.0756 10.7582,39.2956 15.4122,61.3766 C18.9492,78.1616 33.1952,90.5126 50.3492,91.7286 C60.3062,92.4346 69.2992,89.6856 77.1782,83.4776 C77.4412,83.2706 77.6822,83.0346 77.9592,82.7906 C76.3572,80.8836 74.8242,79.0616 73.2542,77.1936" id="Fill-1"></path>
                <path d="M73.2542,77.1936 C74.8242,79.0616 76.3572,80.8836 77.9592,82.7906 C77.6822,83.0346 77.4412,83.2706 77.1782,83.4776 C69.2992,89.6856 60.3062,92.4346 50.3492,91.7286 C33.1952,90.5126 18.9492,78.1616 15.4122,61.3766 C10.7582,39.2956 25.2092,19.0756 46.0502,15.2376 C67.9832,11.1996 87.1822,25.8836 91.0262,45.5406 C91.2392,46.6316 91.3652,47.7396 91.5812,48.8306 C91.6312,49.0846 91.8762,49.4996 92.0382,49.5026 C94.2572,49.5476 96.4772,49.5326 98.7002,49.5326 C98.1982,35.6356 88.4732,16.7566 67.8262,9.7986 C47.7462,3.0316 25.7062,10.6456 14.1722,29.1726 C2.9362,47.2206 5.7672,70.8266 20.9842,85.7766 C29.3662,94.0106 39.4762,98.4586 51.2502,98.9476 C63.0152,99.4356 73.4202,95.7986 82.6092,88.3416 C84.1832,90.2156 85.7292,92.0586 87.2752,93.8996 C71.3742,107.8236 44.4162,111.7916 22.9542,96.8616 C1.1232,81.6766 -6.2628,53.0066 5.7032,29.3986 C17.6082,5.9106 44.8872,-5.9684 70.4742,2.9836 C95.5062,11.7416 107.8872,35.6926 106.2152,56.8586 C105.8512,56.8786 105.4762,56.9166 105.1012,56.9166 C89.1982,56.9196 73.2952,56.9136 57.3922,56.9356 C56.6102,56.9366 56.1052,56.6916 55.6192,56.0896 C53.9022,53.9616 52.1322,51.8766 50.2122,49.5706 L69.3542,49.5706 C68.9972,44.0606 62.8572,38.1066 56.3072,36.7686 C49.1992,35.3176 41.6632,39.0056 38.3002,45.5826 C34.8722,52.2886 36.3702,60.4646 41.8712,65.5266 C47.2152,70.4436 56.3912,72.0166 63.9262,66.0786 C65.4752,67.9206 67.0252,69.7656 68.6202,71.6626 C66.2242,73.6956 63.5792,75.1816 60.6342,76.1056 C46.7622,80.4576 32.6372,72.2326 29.5582,58.0256 C26.7322,44.9896 35.8542,31.5976 48.9912,29.4946 C62.3022,27.3636 74.1402,35.5706 76.8672,48.7986 C76.9232,49.0726 77.2322,49.5046 77.4312,49.5086 C79.6502,49.5596 81.8732,49.5406 84.1012,49.5406 C83.4832,40.3396 76.4712,27.8586 62.6282,23.3986 C48.8282,18.9526 33.4832,24.8596 26.1712,37.4676 C18.7062,50.3406 21.2182,66.3826 32.2522,76.4166 C43.0252,86.2136 60.3472,87.7406 73.2542,77.1936" id="Fill-6"></path>
            </g>
        </g>
    </g>
</svg>