<svg id="ei1g4dk673n81" xmlns="http://www.w3.org/2000/svg" xmlns:xlink="http://www.w3.org/1999/xlink" viewBox="0 0 200 200" shape-rendering="geometricPrecision" text-rendering="geometricPrecision"><style><![CDATA[#ei1g4dk673n84_tr {animation: ei1g4dk673n84_tr__tr 3000ms linear infinite normal forwards}@keyframes ei1g4dk673n84_tr__tr { 0% {transform: translate(331.000209px,330.999759px) rotate(0deg)} 100% {transform: translate(331.000209px,330.999759px) rotate(360deg)} }]]></style><g id="ei1g4dk673n82"><g id="ei1g4dk673n83" transform="matrix(0.05946239238236 0 0 0.05946239238236 80.31793632499992 80.31796308999994)"><g id="ei1g4dk673n84_tr" transform="translate(331.000209,330.999759) rotate(0)"><path id="ei1g4dk673n84" d="M331,587C472.384896,587,587,472.384896,587,331C587,189.615104,472.384896,75,331,75C189.615104,75,75,189.615104,75,331C75,472.384896,189.615104,587,331,587Z" transform="scale(1.000001,1.000001) translate(-331,-331)" fill="none" fill-rule="evenodd" stroke="rgb(96,96,96)" stroke-width="64" stroke-linecap="round" stroke-dasharray="402.124000"/></g><g id="ei1g4dk673n85" transform="matrix(1 0 0 1 196 229)"><path id="ei1g4dk673n86" d="M205.208234,0.085944C188.295153,-0.751222,172.691029,4.618739,160.368049,14.063114C149.446274,5.689862,135.927262,0.550686,121.226530,0.057296C120.919566,0.035017,120.614197,0,120.299287,0C120.111606,0,119.928702,0.019101,119.741028,0.020690C119.462698,0.017512,119.187545,0,118.907622,0C114.390683,0,109.996203,0.488611,105.724195,1.327372C77.755746,6.273969,53.771423,25.181822,42.779669,52.111194L2.893810,149.833600C-7.437901,175.149114,11.169038,202.869486,38.498120,202.869486L72.998641,202.869486C73.429658,202.869486,73.808189,202.559132,73.884533,202.134180C76.073023,190.009604,73.526677,177.331157,67.131388,166.319083C63.414457,159.919379,63.158391,151.076610,67.245901,141.309149L100.454965,61.955052C102.425558,56.951158,108.119447,52.790793,113.173969,52.666647C118.228492,52.542508,120.727121,56.497558,118.758116,61.504636L97.173821,120.042586C95.316146,125.079908,97.908620,130.784097,103.093553,132.157622C107.432365,133.308326,111.761629,131.158115,113.565223,127.308104L144.390164,61.504636C146.653410,56.682177,152.215287,52.895837,157.040784,52.892653L157.482935,52.892653C162.311608,52.891057,164.710036,56.678999,162.935070,61.504636L141.353957,120.042586C139.496282,125.078313,142.087161,130.782501,147.272101,132.157622C151.612501,133.308326,155.938583,131.158115,157.743771,127.308104L188.567124,61.504636C190.830364,56.682177,196.392247,52.895837,201.219325,52.892653C206.221361,52.892653,208.578445,56.951158,206.483792,61.955052L173.274734,141.309149C167.566528,154.947312,154.903185,166.779046,141.136060,172.682175C128.472718,178.109431,118.756528,188.726796,114.053497,201.685360C113.845147,202.259914,114.269806,202.869486,114.882139,202.869486L156.383917,202.869486L156.331431,203C157.812163,202.995220,159.286530,202.944293,160.756127,202.869486L162.928712,202.869486L163.009826,202.732615C198.936998,200.060366,230.907079,176.996922,244.798263,142.747928L265.972223,91.427747C269.189746,82.489493,270.608445,72.694967,269.757546,62.469132C266.948770,28.688052,239.040753,1.760275,205.208234,0.085944" fill="rgb(96,96,96)" stroke="none" stroke-width="1"/></g></g></g></svg>