<svg id="e94x2pkjo3nj1" xmlns="http://www.w3.org/2000/svg" xmlns:xlink="http://www.w3.org/1999/xlink" viewBox="0 0 33 58" shape-rendering="geometricPrecision" text-rendering="geometricPrecision"><style><![CDATA[#e94x2pkjo3nj5_to {animation: e94x2pkjo3nj5_to__to 1000ms linear infinite normal forwards}@keyframes e94x2pkjo3nj5_to__to { 0% {transform: translate(0px,-27.478622px)} 100% {transform: translate(0px,2.144673px)} }#e94x2pkjo3nj5 {animation: e94x2pkjo3nj5_c_o 1000ms linear infinite normal forwards}@keyframes e94x2pkjo3nj5_c_o { 0% {opacity: 1} 100% {opacity: 0} }]]></style><g id="e94x2pkjo3nj2"><g id="e94x2pkjo3nj3"><path id="e94x2pkjo3nj4" d="M16.500000,0.500000C20.918278,0.500000,24.918278,2.290861,27.813709,5.186292C30.709139,8.081722,32.500000,12.081722,32.500000,16.500000L32.500000,16.500000L32.500000,41.500000C32.500000,45.918278,30.709139,49.918278,27.813709,52.813708C24.918278,55.709139,20.918278,57.500000,16.500000,57.500000C12.081722,57.500000,8.081722,55.709139,5.186292,52.813708C2.290861,49.918278,0.500000,45.918278,0.500000,41.500000L0.500000,41.500000L0.500000,16.500000C0.500000,12.081722,2.290861,8.081722,5.186292,5.186292C8.081722,2.290861,12.081722,0.500000,16.500000,0.500000Z" fill="none" fill-rule="evenodd" stroke="rgb(0,0,0)" stroke-width="1"/><g id="e94x2pkjo3nj5_to" transform="translate(0,-27.478622)"><circle id="e94x2pkjo3nj5" r="6.559395" transform="translate(16.500000,42.500000)" fill="rgb(0,0,0)" fill-rule="evenodd" stroke="none" stroke-width="1"/></g></g></g></svg>