<?xml version="1.0" encoding="UTF-8"?>
<svg width="166px" height="166px" viewBox="0 0 166 166" version="1.1" xmlns="http://www.w3.org/2000/svg" xmlns:xlink="http://www.w3.org/1999/xlink">
    <title>wolt</title>
    <g id="Web" stroke="none" stroke-width="1" fill="none" fill-rule="evenodd">
        <g id="wolt">
            <circle id="Oval" fill="#4BB0DE" cx="83" cy="83" r="83"></circle>
            <g id="wolt-copy" transform="translate(19.000000, 59.000000)" fill="#FFFFFF">
                <path d="M8.24573557,47.2018072 C7.71513518,46.9962133 7.14641016,47.032983 6.59694398,46.9452102 C5.69649546,46.8012945 4.79761909,46.6589602 3.91249902,46.4316208 C2.56162972,46.084088 1.74882852,45.214663 1.37033358,43.88621 C1.00716709,42.6091556 0.792568704,41.3020527 0.605089898,39.9925777 C0.129121692,36.669073 -0.0418495459,33.3234275 0.00845923225,29.9698745 C0.0548376371,26.8962456 0.25017719,23.8301287 0.567358314,20.7703378 C1.00756012,16.5256143 1.67454447,12.3184512 2.50267412,8.13461513 C2.79784516,6.6436639 3.39762012,5.36305106 4.80390768,4.61658702 C5.6516892,4.16665265 6.58475982,4.01324797 7.52097474,3.91084638 C8.62973304,3.78986227 9.74438691,3.73332395 10.861006,3.72581186 C12.1277653,3.71750903 12.724789,4.43866921 12.4697077,5.69555968 C11.9839136,8.09033336 11.5087315,10.4866885 11.1003657,12.8964864 C10.6923929,15.307075 10.3378733,17.7239896 10.0576377,20.1535561 C9.59306754,24.1816152 9.34191668,28.2215356 9.40283747,32.2756893 C9.44567854,35.1306771 9.62411749,37.9797342 10.0163687,40.8196978 C10.1955938,40.8295821 10.1908773,40.6564088 10.2392209,40.5599378 C12.6477537,35.7458773 14.9517385,30.8808137 17.2054145,25.9916324 C19.8305108,20.2970764 22.3125416,14.5392608 24.7670597,8.76918864 C24.7729553,8.75614133 24.7772787,8.74230328 24.7827812,8.72846523 C25.2497095,7.52297324 26.0770531,6.84174573 27.4004098,6.69387626 C28.8668321,6.53019188 30.3167468,6.52149367 31.7666615,6.77848606 C32.5629551,6.91923882 32.9359475,7.33200813 32.9607089,8.14608094 C33.014948,9.92525901 32.8769919,11.7004834 32.8266832,13.4776846 C32.8015288,14.3660875 32.7421801,15.2529089 32.7115232,16.1409164 C32.6010797,19.3616241 32.5311191,22.5839133 32.6278063,25.804621 C32.7335333,29.3127648 32.9276938,32.8177456 33.7318481,36.2535361 C33.9943971,37.3756044 34.3135434,38.4814624 34.9278607,39.4706854 C35.951723,41.1189951 37.2440297,41.2265365 38.4907441,39.739539 C39.4682279,38.5735843 40.0169081,37.1692198 40.5168515,35.7525986 C41.5572214,32.8074659 42.1801855,29.7579547 42.6879897,26.6831396 C43.1840029,23.6794916 43.4956815,20.6537028 43.7149963,17.6188204 C43.8053949,16.369442 43.8627783,15.1169006 43.8989378,13.86515 C43.9637889,11.6360376 43.9806895,9.40613439 43.9079776,7.17702195 C43.8631714,5.79400753 43.8034297,4.41138848 43.6729413,3.03311853 C43.6344236,2.62311683 43.6623293,2.21706886 43.7531209,1.81695148 C43.9559282,0.92419946 44.554131,0.390050666 45.4985997,0.327186374 C47.2193171,0.212528231 48.9419997,0.123173955 50.6642893,0.308208474 C51.0978095,0.354467104 51.5234689,0.443821381 51.9318347,0.595644576 C53.2339674,1.07958101 53.7747867,2.11189967 53.9178523,3.42097935 C54.1092615,5.17089983 53.9233548,6.91607583 53.7936525,8.65650736 C53.630542,10.847664 53.3369431,13.0269595 52.9549109,15.1920215 C51.6181909,22.7780414 49.6215613,30.1596535 46.1510417,37.0727488 C44.8662026,39.632393 43.343576,42.0410047 41.3013541,44.0732214 C40.1049484,45.2640846 38.7654772,46.2588429 37.1324071,46.7597803 C33.9130383,47.7470265 29.7959723,46.7724323 27.5320773,43.0488102 C26.2802534,40.9901035 25.6006919,38.7297566 25.128654,36.3942889 C24.5650385,33.6065145 24.2942358,30.7823659 24.1503841,27.9439838 C24.1047918,27.0429289 24.0478014,26.1422695 23.9935622,25.2024681 C23.8288796,25.3187077 23.8009739,25.4800198 23.7392671,25.6132605 C21.5763827,30.2877544 19.4378666,34.973714 17.084359,39.556086 C16.2401148,41.2000465 15.3498853,42.8190986 14.4132773,44.412056 C13.5804312,45.8290725 12.461454,46.8621819 10.7741447,47.1227326 C10.7403435,47.1282679 10.7124378,47.1745265 10.6813879,47.2018072 L8.24573557,47.2018072 Z" id="Fill-1"></path>
                <path d="M63,46.8247784 C63.2811355,46.3647784 63.6297926,46.7097784 63.9416198,46.6137784 C63.9913403,46.6547784 64.0091414,46.6997784 63.9956371,46.7487784 C63.9815189,46.7997784 63.9667869,46.8247784 63.9508273,46.8247784 L63,46.8247784 Z" id="Fill-4"></path>
                <path d="M64.0095908,46.8215765 C64.0095908,46.7505765 64.0063939,46.6805765 64,46.6105765 C64.3337596,46.6745765 64.6969309,46.4025765 65,46.8215765 L64.0095908,46.8215765 Z" id="Fill-7"></path>
                <path d="M65,46.8277355 C65.3328313,46.5257355 65.6664157,46.4597355 66,46.8277355 L65,46.8277355 Z" id="Fill-10"></path>
                <path d="M114,46.8280616 C114.332831,46.4760616 114.666416,46.5070616 115,46.8280616 L114,46.8280616 Z" id="Fill-13"></path>
                <path d="M116,46.8237862 C116.333635,46.5177862 116.667269,46.4797862 117,46.8237862 L116,46.8237862 Z" id="Fill-16"></path>
                <path d="M74.0727541,29.1200258 C73.4428126,32.6520068 72.4936283,36.0677443 70.5583642,39.1228901 C69.9490065,40.0840728 69.2312926,40.9515492 68.2875455,41.5976095 C66.3616024,42.9158256 64.0546651,42.3488425 62.9283825,40.2786026 C62.3625226,39.2391335 62.1225079,38.1055625 62.0417263,36.9336391 C61.990461,36.193477 61.9310399,35.4509425 61.996675,34.9962489 C62.1349359,31.0151097 62.6906981,27.4080055 64.1047652,23.980011 C64.8434512,22.1889135 65.7945774,20.5350149 67.3604985,19.342136 C68.5489208,18.4370981 69.8802644,18.1508388 71.3386061,18.4232596 C71.7386306,18.4975921 71.8520356,18.6336048 71.7627097,19.0839492 C71.3222944,21.3044356 71.1906359,23.530062 71.9219428,25.7244529 C72.2974998,26.8516977 72.9130714,27.8207882 73.8381766,28.5660904 C74.0234307,28.7147554 74.1178054,28.8669789 74.0727541,29.1200258 M116.737502,27.6136061 C117.127817,25.3891658 117.537939,23.1690748 117.970587,20.9529376 C118.025348,20.6737953 118.099527,20.4812424 118.445567,20.4563331 C119.815748,20.3570913 121.189813,20.3839775 122.561548,20.299365 C123.645109,20.2329402 124.734108,20.2851311 125.821553,20.2060539 C127.543212,20.0803213 128.631434,19.2290557 129,17.6305111 L129,16.6681422 C128.686971,15.8212259 128.021688,15.5112435 127.198336,15.4562848 C126.58393,15.4155601 125.969135,15.3902554 125.35434,15.362183 C123.295185,15.2680812 121.236418,15.1716071 119.176874,15.0873899 C118.902683,15.0763191 118.846369,15.0035681 118.901906,14.7228443 C119.32601,12.569178 119.694964,10.4036503 120.157129,8.25907791 C120.480644,6.75858896 119.530682,5.90771881 118.45683,5.73414447 C116.824109,5.47042217 115.18129,5.40913737 113.535752,5.56689629 C112.580354,5.65862579 112.005562,6.24854134 111.797394,7.21960875 C111.287459,9.59350484 110.862967,11.9840071 110.447796,14.3760909 C110.395754,14.6773749 110.288952,14.7509166 110.007769,14.7469628 C108.676037,14.728775 107.343529,14.7208673 106.011797,14.7295658 C105.042417,14.735892 104.518501,15.1486747 104.278487,16.0976005 C104.003907,17.1864929 103.888171,18.3014807 103.814769,19.4212132 C103.77632,20.0087564 104.056337,20.3906991 104.556562,20.6287213 C104.883961,20.7848987 105.231555,20.880582 105.594295,20.8683251 C106.681352,20.8315542 107.769574,20.8042726 108.854301,20.7287539 C109.228304,20.7022631 109.251218,20.8003187 109.187913,21.1296751 C108.746721,23.4288432 108.401457,25.7442222 108.103187,28.0671135 C107.933468,29.3908651 107.83016,30.718175 107.338091,31.9893402 C106.245986,34.8104176 104.887456,37.4504083 102.681107,39.5506975 C101.7494,40.4375477 100.699238,41.1267051 99.4176066,41.3852874 C97.9227578,41.6869667 96.5980165,41.0772819 96.0306031,39.8045351 C95.7618488,39.2023626 95.6270832,38.5626284 95.56339,37.9074742 C95.3664848,35.8787499 95.5567877,33.8591195 95.7645674,31.8470014 C96.0892475,28.7044754 96.6566608,25.6003018 97.3669956,22.5238052 C97.7103176,21.0379456 97.9522741,19.515315 98.5037642,18.094694 C99.8316125,14.6750026 100.910125,11.1841417 101.618906,7.57782825 C101.910963,6.09196858 102.151366,4.59661964 102.164182,3.07754757 C102.17661,1.62924954 101.602983,0.741608518 100.494566,0.518215565 C98.5822156,0.133109838 96.6632632,0.070243503 94.7415921,0.493306263 C93.6933726,0.724211544 93.0012914,1.34101332 92.6870974,2.37890094 C92.5441761,2.85059614 92.4323246,3.33336215 92.3313475,3.81652355 C91.3666283,8.42672147 90.4667674,13.0499671 89.715265,17.7012852 C89.3152405,20.1803539 89.3478639,20.1945877 87.5768817,21.8473002 C86.2210706,23.11293 84.7099101,24.1172098 82.9000906,24.5873235 C82.2884026,24.7458732 82.2837421,24.7431055 82.2472351,24.1243268 C82.1839302,23.0449237 82.0025599,21.9841037 81.7066194,20.9474022 C80.7527746,17.6044156 78.7580894,15.2301242 75.4619653,14.1092056 C73.2762004,13.3658803 71.0314028,13.2848263 68.7605842,13.5884825 C64.1199118,14.2088428 60.3674491,16.4487031 57.5668893,20.216334 C53.5491676,25.6204665 52.2741381,31.7588303 53.3817787,38.3878679 C54.1499811,42.9869951 57.1023948,45.9270835 61.5822807,46.8764048 C62.1345475,46.9930435 62.712447,46.9709019 63.2417998,47.2018072 L63.4138491,47.2018072 C63.6088125,47.1061239 63.8158155,47.1792702 64.0158277,47.1571286 C64.21584,47.1796656 64.4224546,47.1061239 64.6170296,47.2018072 L65.7347679,47.2018072 C65.9064289,47.1306378 66.0784783,47.1306378 66.2501393,47.2018072 L66.5080191,47.2018072 C67.0109625,47.09703 67.527499,47.1417086 68.0323843,47.0412806 C71.3766667,46.3758464 74.1822753,44.7527879 76.472901,42.1831758 C78.0784362,40.3814029 79.2886073,38.3348863 80.2230335,36.1076783 C80.9333682,34.4146365 81.4805862,32.6678222 81.87362,30.8719801 C81.9536248,30.5066437 82.1047021,30.2943215 82.4907451,30.2029874 C83.3424477,30.001736 84.15842,29.6905675 84.9464294,29.2932048 C85.9993094,28.7618063 86.9605333,28.093209 87.913213,27.3178575 C87.8297127,27.9010515 87.7198031,28.4249376 87.6320307,28.9527776 C87.2498714,31.2503643 86.9057727,33.5519048 86.7477047,35.8807269 C86.6164346,37.8082324 86.6133276,39.7211087 87.1061733,41.606308 C87.8145662,44.3178635 89.4379665,46.1231949 92.1204608,46.9056633 C92.7158371,47.0792376 93.3290785,47.0875407 93.9287269,47.2018072 L96.5937444,47.2018072 C101.474043,46.6328471 104.672297,43.539349 107.408387,39.7139918 C107.551308,40.6198205 107.738893,41.4876923 108.047649,42.3223516 C108.871778,44.5475826 110.30604,46.1413826 112.584238,46.8720555 C113.174565,47.0614453 113.785476,47.0958438 114.387067,47.2018072 L114.816996,47.2018072 C114.988657,47.1306378 115.160706,47.1306378 115.332367,47.2018072 L116.364275,47.2018072 C116.507196,47.1306378 116.650506,47.1306378 116.793816,47.2018072 L116.965865,47.2018072 C117.409388,47.0934715 117.87194,47.1456625 118.316628,47.0290237 C119.874393,46.6201948 121.308655,45.9432944 122.611648,44.9856701 C124.691387,43.4578995 126.280222,41.4861107 127.570786,39.2505997 C127.817015,38.8239784 128.070234,38.4005203 128.196067,37.9122189 C128.318017,37.4401283 128.214321,37.0518595 127.847308,36.7331786 C127.461653,36.397496 127.032889,36.1361461 126.552472,35.9732471 C125.74349,35.6988494 125.191223,35.9004961 124.770227,36.6390767 C124.308839,37.448036 123.805507,38.2265506 123.205471,38.9354772 C122.198419,40.1259837 121.010385,41.0088801 119.435919,41.269044 C117.556969,41.5798172 116.170865,40.6996885 115.737829,38.8773555 C115.690836,38.6792672 115.667533,38.4756436 115.628308,38.2759738 C115.432956,37.271694 115.562673,36.2666234 115.656271,35.271042 C115.89745,32.7022208 116.292038,30.1539596 116.737502,27.6136061" id="Fill-19"></path>
            </g>
        </g>
    </g>
</svg>